<svg width="512" height="512" viewBox="0 0 512 512" fill="none" xmlns="http://www.w3.org/2000/svg">
<path d="M472 16H40C33.6406 16.019 27.5472 18.5537 23.0504 23.0504C18.5537 27.5472 16.019 33.6406 16 40V472C16.019 478.359 18.5537 484.453 23.0504 488.95C27.5472 493.446 33.6406 495.981 40 496H472C478.359 495.981 484.453 493.446 488.95 488.95C493.446 484.453 495.981 478.359 496 472V40C495.981 33.6406 493.446 27.5472 488.95 23.0504C484.453 18.5537 478.359 16.019 472 16ZM480 472C480 474.122 479.157 476.157 477.657 477.657C476.157 479.157 474.122 480 472 480H40C37.8783 480 35.8434 479.157 34.3431 477.657C32.8429 476.157 32 474.122 32 472V96H480V472ZM480 80H32V40C32 37.8783 32.8429 35.8434 34.3431 34.3431C35.8434 32.8429 37.8783 32 40 32H472C474.122 32 476.157 32.8429 477.657 34.3431C479.157 35.8434 480 37.8783 480 40V80Z" fill="#121827"/>
<path d="M64 48H56C53.8783 48 51.8434 48.8429 50.3431 50.3431C48.8429 51.8434 48 53.8783 48 56C48 58.1217 48.8429 60.1566 50.3431 61.6569C51.8434 63.1571 53.8783 64 56 64H64C66.1217 64 68.1566 63.1571 69.6569 61.6569C71.1571 60.1566 72 58.1217 72 56C72 53.8783 71.1571 51.8434 69.6569 50.3431C68.1566 48.8429 66.1217 48 64 48Z" fill="#121827"/>
<path d="M96 48H88C85.8783 48 83.8434 48.8429 82.3431 50.3431C80.8429 51.8434 80 53.8783 80 56C80 58.1217 80.8429 60.1566 82.3431 61.6569C83.8434 63.1571 85.8783 64 88 64H96C98.1217 64 100.157 63.1571 101.657 61.6569C103.157 60.1566 104 58.1217 104 56C104 53.8783 103.157 51.8434 101.657 50.3431C100.157 48.8429 98.1217 48 96 48Z" fill="#121827"/>
<path d="M128 48H120C117.878 48 115.843 48.8429 114.343 50.3431C112.843 51.8434 112 53.8783 112 56C112 58.1217 112.843 60.1566 114.343 61.6569C115.843 63.1571 117.878 64 120 64H128C130.122 64 132.157 63.1571 133.657 61.6569C135.157 60.1566 136 58.1217 136 56C136 53.8783 135.157 51.8434 133.657 50.3431C132.157 48.8429 130.122 48 128 48Z" fill="#121827"/>
<path d="M456 48H176C173.878 48 171.843 48.8429 170.343 50.3431C168.843 51.8434 168 53.8783 168 56C168 58.1217 168.843 60.1566 170.343 61.6569C171.843 63.1571 173.878 64 176 64H456C458.122 64 460.157 63.1571 461.657 61.6569C463.157 60.1566 464 58.1217 464 56C464 53.8783 463.157 51.8434 461.657 50.3431C460.157 48.8429 458.122 48 456 48Z" fill="#121827"/>
<path d="M440 112H280C277.878 112 275.843 112.843 274.343 114.343C272.843 115.843 272 117.878 272 120V264C272 266.122 272.843 268.157 274.343 269.657C275.843 271.157 277.878 272 280 272H440C442.122 272 444.157 271.157 445.657 269.657C447.157 268.157 448 266.122 448 264V120C448 117.878 447.157 115.843 445.657 114.343C444.157 112.843 442.122 112 440 112ZM432 256H288V128H432V256Z" fill="#121827"/>
<path d="M72 272H232C234.122 272 236.157 271.157 237.657 269.657C239.157 268.157 240 266.122 240 264V120C240 117.878 239.157 115.843 237.657 114.343C236.157 112.843 234.122 112 232 112H72C69.8783 112 67.8434 112.843 66.3431 114.343C64.8429 115.843 64 117.878 64 120V264C64 266.122 64.8429 268.157 66.3431 269.657C67.8434 271.157 69.8783 272 72 272ZM80 128H224V256H80V128Z" fill="#121827"/>
<path d="M400 144H320C317.878 144 315.843 144.843 314.343 146.343C312.843 147.843 312 149.878 312 152V168C312 170.122 312.843 172.157 314.343 173.657C315.843 175.157 317.878 176 320 176C322.122 176 324.157 175.157 325.657 173.657C327.157 172.157 328 170.122 328 168V160H352V224C349.878 224 347.843 224.843 346.343 226.343C344.843 227.843 344 229.878 344 232C344 234.122 344.843 236.157 346.343 237.657C347.843 239.157 349.878 240 352 240H368C370.122 240 372.157 239.157 373.657 237.657C375.157 236.157 376 234.122 376 232C376 229.878 375.157 227.843 373.657 226.343C372.157 224.843 370.122 224 368 224V160H392V168C392 170.122 392.843 172.157 394.343 173.657C395.843 175.157 397.878 176 400 176C402.122 176 404.157 175.157 405.657 173.657C407.157 172.157 408 170.122 408 168V152C408 149.878 407.157 147.843 405.657 146.343C404.157 144.843 402.122 144 400 144Z" fill="#121827"/>
<path d="M280 464H440C442.122 464 444.157 463.157 445.657 461.657C447.157 460.157 448 458.122 448 456V312C448 309.878 447.157 307.843 445.657 306.343C444.157 304.843 442.122 304 440 304H280C277.878 304 275.843 304.843 274.343 306.343C272.843 307.843 272 309.878 272 312V456C272 458.122 272.843 460.157 274.343 461.657C275.843 463.157 277.878 464 280 464ZM288 320H432V448H288V320Z" fill="#121827"/>
<path d="M232 304H72C69.8783 304 67.8434 304.843 66.3431 306.343C64.8429 307.843 64 309.878 64 312V456C64 458.122 64.8429 460.157 66.3431 461.657C67.8434 463.157 69.8783 464 72 464H232C234.122 464 236.157 463.157 237.657 461.657C239.157 460.157 240 458.122 240 456V312C240 309.878 239.157 307.843 237.657 306.343C236.157 304.843 234.122 304 232 304ZM85.92 448L128 375.84L170.08 448H85.92ZM188.56 448L176.72 427.6L191.6 406.48L217.6 448H188.56ZM224 428.08L198.8 387.76C198.097 386.642 197.13 385.713 195.984 385.057C194.837 384.401 193.547 384.037 192.227 383.998C190.906 383.958 189.597 384.244 188.413 384.831C187.23 385.417 186.208 386.286 185.44 387.36L167.84 412.4L134.88 356C134.132 354.858 133.111 353.92 131.91 353.271C130.709 352.621 129.365 352.282 128 352.282C126.635 352.282 125.291 352.621 124.09 353.271C122.889 353.92 121.868 354.858 121.12 356L80 426.4V320H224V428.08Z" fill="#121827"/>
<path d="M168 368C176.837 368 184 360.837 184 352C184 343.163 176.837 336 168 336C159.163 336 152 343.163 152 352C152 360.837 159.163 368 168 368Z" fill="#121827"/>
<path d="M312 360H320C322.122 360 324.157 359.157 325.657 357.657C327.157 356.157 328 354.122 328 352C328 349.878 327.157 347.843 325.657 346.343C324.157 344.843 322.122 344 320 344H312C309.878 344 307.843 344.843 306.343 346.343C304.843 347.843 304 349.878 304 352C304 354.122 304.843 356.157 306.343 357.657C307.843 359.157 309.878 360 312 360Z" fill="#121827"/>
<path d="M408 344H352C349.878 344 347.843 344.843 346.343 346.343C344.843 347.843 344 349.878 344 352C344 354.122 344.843 356.157 346.343 357.657C347.843 359.157 349.878 360 352 360H408C410.122 360 412.157 359.157 413.657 357.657C415.157 356.157 416 354.122 416 352C416 349.878 415.157 347.843 413.657 346.343C412.157 344.843 410.122 344 408 344Z" fill="#121827"/>
<path d="M408 376H312C309.878 376 307.843 376.843 306.343 378.343C304.843 379.843 304 381.878 304 384C304 386.122 304.843 388.157 306.343 389.657C307.843 391.157 309.878 392 312 392H408C410.122 392 412.157 391.157 413.657 389.657C415.157 388.157 416 386.122 416 384C416 381.878 415.157 379.843 413.657 378.343C412.157 376.843 410.122 376 408 376Z" fill="#121827"/>
<path d="M408 408H312C309.878 408 307.843 408.843 306.343 410.343C304.843 411.843 304 413.878 304 416C304 418.122 304.843 420.157 306.343 421.657C307.843 423.157 309.878 424 312 424H408C410.122 424 412.157 423.157 413.657 421.657C415.157 420.157 416 418.122 416 416C416 413.878 415.157 411.843 413.657 410.343C412.157 408.843 410.122 408 408 408Z" fill="#121827"/>
<path d="M112 152H104C101.878 152 99.8434 152.843 98.3431 154.343C96.8429 155.843 96 157.878 96 160C96 162.122 96.8429 164.157 98.3431 165.657C99.8434 167.157 101.878 168 104 168H112C114.122 168 116.157 167.157 117.657 165.657C119.157 164.157 120 162.122 120 160C120 157.878 119.157 155.843 117.657 154.343C116.157 152.843 114.122 152 112 152Z" fill="#121827"/>
<path d="M200 152H144C141.878 152 139.843 152.843 138.343 154.343C136.843 155.843 136 157.878 136 160C136 162.122 136.843 164.157 138.343 165.657C139.843 167.157 141.878 168 144 168H200C202.122 168 204.157 167.157 205.657 165.657C207.157 164.157 208 162.122 208 160C208 157.878 207.157 155.843 205.657 154.343C204.157 152.843 202.122 152 200 152Z" fill="#121827"/>
<path d="M112 184H104C101.878 184 99.8434 184.843 98.3431 186.343C96.8429 187.843 96 189.878 96 192C96 194.122 96.8429 196.157 98.3431 197.657C99.8434 199.157 101.878 200 104 200H112C114.122 200 116.157 199.157 117.657 197.657C119.157 196.157 120 194.122 120 192C120 189.878 119.157 187.843 117.657 186.343C116.157 184.843 114.122 184 112 184Z" fill="#121827"/>
<path d="M200 184H144C141.878 184 139.843 184.843 138.343 186.343C136.843 187.843 136 189.878 136 192C136 194.122 136.843 196.157 138.343 197.657C139.843 199.157 141.878 200 144 200H200C202.122 200 204.157 199.157 205.657 197.657C207.157 196.157 208 194.122 208 192C208 189.878 207.157 187.843 205.657 186.343C204.157 184.843 202.122 184 200 184Z" fill="#121827"/>
<path d="M112 216H104C101.878 216 99.8434 216.843 98.3431 218.343C96.8429 219.843 96 221.878 96 224C96 226.122 96.8429 228.157 98.3431 229.657C99.8434 231.157 101.878 232 104 232H112C114.122 232 116.157 231.157 117.657 229.657C119.157 228.157 120 226.122 120 224C120 221.878 119.157 219.843 117.657 218.343C116.157 216.843 114.122 216 112 216Z" fill="#121827"/>
<path d="M200 216H144C141.878 216 139.843 216.843 138.343 218.343C136.843 219.843 136 221.878 136 224C136 226.122 136.843 228.157 138.343 229.657C139.843 231.157 141.878 232 144 232H200C202.122 232 204.157 231.157 205.657 229.657C207.157 228.157 208 226.122 208 224C208 221.878 207.157 219.843 205.657 218.343C204.157 216.843 202.122 216 200 216Z" fill="#121827"/>
</svg>
