<svg width="512" height="512" viewBox="0 0 512 512" fill="none" xmlns="http://www.w3.org/2000/svg">
<path d="M472 16H40C33.6406 16.019 27.5472 18.5537 23.0504 23.0504C18.5537 27.5472 16.019 33.6406 16 40V376C16.019 382.359 18.5537 388.453 23.0504 392.95C27.5472 397.446 33.6406 399.981 40 400H48V472C48.019 478.359 50.5537 484.453 55.0504 488.95C59.5472 493.446 65.6406 495.981 72 496H440C446.359 495.981 452.453 493.446 456.95 488.95C461.446 484.453 463.981 478.359 464 472V400H472C478.359 399.981 484.453 397.446 488.95 392.95C493.446 388.453 495.981 382.359 496 376V40C495.981 33.6406 493.446 27.5472 488.95 23.0504C484.453 18.5537 478.359 16.019 472 16ZM448 472C448 474.122 447.157 476.157 445.657 477.657C444.157 479.157 442.122 480 440 480H72C69.8783 480 67.8434 479.157 66.3431 477.657C64.8429 476.157 64 474.122 64 472V136C64 133.878 64.8429 131.843 66.3431 130.343C67.8434 128.843 69.8783 128 72 128H440C442.122 128 444.157 128.843 445.657 130.343C447.157 131.843 448 133.878 448 136V472ZM480 376C480 378.122 479.157 380.157 477.657 381.657C476.157 383.157 474.122 384 472 384H464V136C463.981 129.641 461.446 123.547 456.95 119.05C452.453 114.554 446.359 112.019 440 112H72C65.6406 112.019 59.5472 114.554 55.0504 119.05C50.5537 123.547 48.019 129.641 48 136V384H40C37.8783 384 35.8434 383.157 34.3431 381.657C32.8429 380.157 32 378.122 32 376V96H480V376ZM480 80H32V40C32 37.8783 32.8429 35.8434 34.3431 34.3431C35.8434 32.8429 37.8783 32 40 32H472C474.122 32 476.157 32.8429 477.657 34.3431C479.157 35.8434 480 37.8783 480 40V80Z" fill="#121827"/>
<path d="M64 48H56C53.8783 48 51.8434 48.8429 50.3431 50.3431C48.8429 51.8434 48 53.8783 48 56C48 58.1217 48.8429 60.1566 50.3431 61.6569C51.8434 63.1571 53.8783 64 56 64H64C66.1217 64 68.1566 63.1571 69.6569 61.6569C71.1571 60.1566 72 58.1217 72 56C72 53.8783 71.1571 51.8434 69.6569 50.3431C68.1566 48.8429 66.1217 48 64 48Z" fill="#121827"/>
<path d="M96 48H88C85.8783 48 83.8434 48.8429 82.3431 50.3431C80.8429 51.8434 80 53.8783 80 56C80 58.1217 80.8429 60.1566 82.3431 61.6569C83.8434 63.1571 85.8783 64 88 64H96C98.1217 64 100.157 63.1571 101.657 61.6569C103.157 60.1566 104 58.1217 104 56C104 53.8783 103.157 51.8434 101.657 50.3431C100.157 48.8429 98.1217 48 96 48Z" fill="#121827"/>
<path d="M128 48H120C117.878 48 115.843 48.8429 114.343 50.3431C112.843 51.8434 112 53.8783 112 56C112 58.1217 112.843 60.1566 114.343 61.6569C115.843 63.1571 117.878 64 120 64H128C130.122 64 132.157 63.1571 133.657 61.6569C135.157 60.1566 136 58.1217 136 56C136 53.8783 135.157 51.8434 133.657 50.3431C132.157 48.8429 130.122 48 128 48Z" fill="#121827"/>
<path d="M456 48H176C173.878 48 171.843 48.8429 170.343 50.3431C168.843 51.8434 168 53.8783 168 56C168 58.1217 168.843 60.1566 170.343 61.6569C171.843 63.1571 173.878 64 176 64H456C458.122 64 460.157 63.1571 461.657 61.6569C463.157 60.1566 464 58.1217 464 56C464 53.8783 463.157 51.8434 461.657 50.3431C460.157 48.8429 458.122 48 456 48Z" fill="#121827"/>
<path d="M220.056 326.96C221.289 327.659 222.685 328.017 224.102 327.999C225.519 327.981 226.905 327.586 228.12 326.856L308.12 278.856C309.303 278.145 310.282 277.14 310.961 275.939C311.64 274.737 311.997 273.381 311.997 272C311.997 270.62 311.64 269.264 310.961 268.062C310.282 266.861 309.303 265.856 308.12 265.144L228.12 217.144C226.906 216.415 225.521 216.021 224.105 216.003C222.689 215.984 221.294 216.342 220.061 217.039C218.829 217.736 217.803 218.748 217.09 219.971C216.376 221.194 216 222.584 216 224V320C216 321.416 216.375 322.805 217.088 324.028C217.801 325.251 218.825 326.263 220.056 326.96ZM232 238.128L288.456 272L232 305.872V238.128Z" fill="#121827"/>
<path d="M424 432H206.56C204.922 427.323 201.871 423.271 197.829 420.405C193.788 417.538 188.955 415.998 184 415.998C179.045 415.998 174.212 417.538 170.171 420.405C166.129 423.271 163.078 427.323 161.44 432H88C85.8783 432 83.8434 432.843 82.3431 434.343C80.8429 435.843 80 437.878 80 440C80 442.121 80.8429 444.156 82.3431 445.657C83.8434 447.157 85.8783 448 88 448H161.44C163.078 452.676 166.129 456.728 170.171 459.595C174.212 462.461 179.045 464.001 184 464.001C188.955 464.001 193.788 462.461 197.829 459.595C201.871 456.728 204.922 452.676 206.56 448H424C426.122 448 428.157 447.157 429.657 445.657C431.157 444.156 432 442.121 432 440C432 437.878 431.157 435.843 429.657 434.343C428.157 432.843 426.122 432 424 432ZM184 448C182.418 448 180.871 447.53 179.555 446.651C178.24 445.772 177.214 444.523 176.609 443.061C176.003 441.599 175.845 439.991 176.154 438.439C176.462 436.887 177.224 435.462 178.343 434.343C179.462 433.224 180.887 432.462 182.439 432.153C183.991 431.845 185.6 432.003 187.061 432.609C188.523 433.214 189.773 434.24 190.652 435.555C191.531 436.871 192 438.417 192 440C192 442.121 191.157 444.156 189.657 445.657C188.157 447.157 186.122 448 184 448Z" fill="#121827"/>
<path d="M424 144H88C85.8783 144 83.8434 144.843 82.3431 146.343C80.8429 147.843 80 149.878 80 152V392C80 394.122 80.8429 396.157 82.3431 397.657C83.8434 399.157 85.8783 400 88 400H424C426.122 400 428.157 399.157 429.657 397.657C431.157 396.157 432 394.122 432 392V152C432 149.878 431.157 147.843 429.657 146.343C428.157 144.843 426.122 144 424 144ZM416 384H96V160H416V384Z" fill="#121827"/>
<path d="M380.688 272L370.344 282.344C369.58 283.082 368.971 283.965 368.551 284.941C368.132 285.917 367.911 286.967 367.902 288.029C367.893 289.091 368.095 290.145 368.498 291.128C368.9 292.111 369.494 293.004 370.245 293.755C370.996 294.507 371.889 295.101 372.873 295.503C373.856 295.905 374.909 296.108 375.971 296.098C377.034 296.089 378.083 295.868 379.059 295.449C380.035 295.03 380.918 294.42 381.656 293.656L397.656 277.656C399.156 276.156 399.998 274.122 399.998 272C399.998 269.879 399.156 267.845 397.656 266.344L381.656 250.344C380.147 248.887 378.127 248.081 376.029 248.099C373.931 248.117 371.925 248.959 370.442 250.442C368.958 251.925 368.117 253.932 368.099 256.029C368.081 258.127 368.887 260.148 370.344 261.656L380.688 272Z" fill="#121827"/>
<path d="M338.344 293.656C339.844 295.156 341.879 295.999 344 295.999C346.122 295.999 348.156 295.156 349.656 293.656L365.656 277.656C367.156 276.156 367.999 274.122 367.999 272C367.999 269.879 367.156 267.845 365.656 266.344L349.656 250.344C348.147 248.887 346.127 248.081 344.029 248.099C341.931 248.117 339.925 248.959 338.442 250.442C336.958 251.925 336.117 253.932 336.099 256.029C336.081 258.127 336.887 260.148 338.344 261.656L348.688 272L338.344 282.344C336.844 283.845 336.002 285.879 336.002 288C336.002 290.122 336.844 292.156 338.344 293.656Z" fill="#121827"/>
<path d="M136 296C138.122 296 140.157 295.157 141.657 293.657C143.157 292.157 144 290.122 144 288V264C144 261.878 143.157 259.843 141.657 258.343C140.157 256.843 138.122 256 136 256C133.878 256 131.843 256.843 130.343 258.343C128.843 259.843 128 261.878 128 264V288C128 290.122 128.843 292.157 130.343 293.657C131.843 295.157 133.878 296 136 296Z" fill="#121827"/>
<path d="M160 296C162.122 296 164.157 295.157 165.657 293.657C167.157 292.157 168 290.122 168 288V264C168 261.878 167.157 259.843 165.657 258.343C164.157 256.843 162.122 256 160 256C157.878 256 155.843 256.843 154.343 258.343C152.843 259.843 152 261.878 152 264V288C152 290.122 152.843 292.157 154.343 293.657C155.843 295.157 157.878 296 160 296Z" fill="#121827"/>
</svg>
