<svg width="512" height="512" viewBox="0 0 512 512" fill="none" xmlns="http://www.w3.org/2000/svg">
<path d="M472 16H40C33.6406 16.019 27.5472 18.5537 23.0504 23.0504C18.5537 27.5472 16.019 33.6406 16 40V472C16.019 478.359 18.5537 484.453 23.0504 488.95C27.5472 493.446 33.6406 495.981 40 496H472C478.359 495.981 484.453 493.446 488.95 488.95C493.446 484.453 495.981 478.359 496 472V40C495.981 33.6406 493.446 27.5472 488.95 23.0504C484.453 18.5537 478.359 16.019 472 16ZM480 472C480 474.122 479.157 476.157 477.657 477.657C476.157 479.157 474.122 480 472 480H40C37.8783 480 35.8434 479.157 34.3431 477.657C32.8429 476.157 32 474.122 32 472V96H480V472ZM480 80H32V40C32 37.8783 32.8429 35.8434 34.3431 34.3431C35.8434 32.8429 37.8783 32 40 32H472C474.122 32 476.157 32.8429 477.657 34.3431C479.157 35.8434 480 37.8783 480 40V80Z" fill="#121827"/>
<path d="M64 48H56C53.8783 48 51.8434 48.8429 50.3431 50.3431C48.8429 51.8434 48 53.8783 48 56C48 58.1217 48.8429 60.1566 50.3431 61.6569C51.8434 63.1571 53.8783 64 56 64H64C66.1217 64 68.1566 63.1571 69.6569 61.6569C71.1571 60.1566 72 58.1217 72 56C72 53.8783 71.1571 51.8434 69.6569 50.3431C68.1566 48.8429 66.1217 48 64 48Z" fill="#121827"/>
<path d="M96 48H88C85.8783 48 83.8434 48.8429 82.3431 50.3431C80.8429 51.8434 80 53.8783 80 56C80 58.1217 80.8429 60.1566 82.3431 61.6569C83.8434 63.1571 85.8783 64 88 64H96C98.1217 64 100.157 63.1571 101.657 61.6569C103.157 60.1566 104 58.1217 104 56C104 53.8783 103.157 51.8434 101.657 50.3431C100.157 48.8429 98.1217 48 96 48Z" fill="#121827"/>
<path d="M128 48H120C117.878 48 115.843 48.8429 114.343 50.3431C112.843 51.8434 112 53.8783 112 56C112 58.1217 112.843 60.1566 114.343 61.6569C115.843 63.1571 117.878 64 120 64H128C130.122 64 132.157 63.1571 133.657 61.6569C135.157 60.1566 136 58.1217 136 56C136 53.8783 135.157 51.8434 133.657 50.3431C132.157 48.8429 130.122 48 128 48Z" fill="#121827"/>
<path d="M456 48H176C173.878 48 171.843 48.8429 170.343 50.3431C168.843 51.8434 168 53.8783 168 56C168 58.1217 168.843 60.1566 170.343 61.6569C171.843 63.1571 173.878 64 176 64H456C458.122 64 460.157 63.1571 461.657 61.6569C463.157 60.1566 464 58.1217 464 56C464 53.8783 463.157 51.8434 461.657 50.3431C460.157 48.8429 458.122 48 456 48Z" fill="#121827"/>
<path d="M391.76 240C389.548 206.495 375.112 174.968 351.192 151.403C327.273 127.837 295.534 113.873 262 112.16C243.706 111.339 225.434 114.223 208.282 120.64C191.131 127.056 175.453 136.873 162.19 149.501C148.927 162.129 138.353 177.306 131.103 194.123C123.853 210.939 120.076 229.048 120 247.36L104.08 350.8C103.907 351.94 103.983 353.104 104.301 354.212C104.62 355.32 105.174 356.346 105.927 357.22C106.679 358.093 107.611 358.794 108.659 359.274C109.707 359.754 110.847 360.002 112 360H144V392C144 394.122 144.843 396.157 146.343 397.657C147.843 399.157 149.878 400 152 400H184V456C184 458.122 184.843 460.157 186.343 461.657C187.843 463.157 189.878 464 192 464H320C322.122 464 324.157 463.157 325.657 461.657C327.157 460.157 328 458.122 328 456V391.04C327.973 383.219 329.606 375.48 332.792 368.337C335.977 361.193 340.643 354.807 346.48 349.6C361.836 335.955 373.892 318.999 381.736 300.012C389.58 281.026 393.008 260.505 391.76 240ZM335.84 337.6C328.318 344.319 322.304 352.555 318.195 361.766C314.086 370.977 311.974 380.954 312 391.04V448H200V392C200 389.879 199.157 387.844 197.657 386.343C196.157 384.843 194.122 384 192 384H160V352C160 349.879 159.157 347.844 157.657 346.343C156.157 344.843 154.122 344 152 344H121.36L135.92 249.2C135.986 248.804 136.013 248.402 136 248C135.995 231.794 139.273 215.755 145.636 200.85C151.999 185.945 161.315 172.483 173.022 161.277C184.729 150.071 198.585 141.352 213.754 135.646C228.922 129.941 245.09 127.367 261.28 128.08C290.876 129.608 318.881 141.945 339.983 162.753C361.086 183.56 373.816 211.389 375.76 240.96C376.878 259.042 373.865 277.141 366.949 293.885C360.032 310.63 349.393 325.579 335.84 337.6Z" fill="#121827"/>
<path d="M292.08 310.32C305.781 302.383 316.483 290.151 322.531 275.517C328.578 260.884 329.633 244.665 325.532 229.371C321.431 214.078 312.403 200.562 299.846 190.917C287.289 181.273 271.902 176.036 256.068 176.019C240.235 176.001 224.837 181.204 212.258 190.821C199.679 200.438 190.622 213.933 186.487 229.217C182.352 244.502 183.371 260.723 189.386 275.37C195.401 290.017 206.077 302.272 219.76 310.24C221.017 310.923 222.072 311.927 222.816 313.149C223.561 314.371 223.969 315.769 224 317.2V320H216C213.878 320 211.843 320.843 210.343 322.343C208.843 323.843 208 325.878 208 328V352C208 354.121 208.843 356.156 210.343 357.657C211.843 359.157 213.878 360 216 360H224V384C224.019 390.359 226.554 396.453 231.05 400.949C235.547 405.446 241.641 407.981 248 408H264C270.359 407.981 276.453 405.446 280.95 400.949C285.446 396.453 287.981 390.359 288 384V360H296C298.122 360 300.156 359.157 301.657 357.657C303.157 356.156 304 354.121 304 352V328C304 325.878 303.157 323.843 301.657 322.343C300.156 320.843 298.122 320 296 320H288V317.2C288.016 315.796 288.402 314.421 289.118 313.213C289.835 312.005 290.856 311.008 292.08 310.32ZM264 392H248C245.878 392 243.843 391.157 242.343 389.657C240.843 388.156 240 386.121 240 384H272C272 386.121 271.157 388.156 269.657 389.657C268.156 391.157 266.122 392 264 392ZM272 368H240V360H272V368ZM288 344H224V336H288V344ZM248 256H240C238.418 256 236.871 255.53 235.555 254.651C234.24 253.772 233.214 252.523 232.609 251.061C232.003 249.599 231.845 247.991 232.154 246.439C232.462 244.887 233.224 243.462 234.343 242.343C235.462 241.224 236.887 240.462 238.439 240.153C239.991 239.845 241.6 240.003 243.061 240.609C244.523 241.214 245.773 242.24 246.652 243.555C247.531 244.871 248 246.417 248 248V256ZM284 296.48C280.374 298.595 277.361 301.618 275.257 305.251C273.153 308.884 272.03 313.002 272 317.2V320H264V272H272C278.365 272 284.47 269.471 288.97 264.97C293.471 260.469 296 254.365 296 248C296 241.634 293.471 235.53 288.97 231.029C284.47 226.528 278.365 224 272 224C266.076 224.015 260.37 226.24 256 230.24C251.629 226.24 245.924 224.015 240 224C233.635 224 227.53 226.528 223.029 231.029C218.528 235.53 216 241.634 216 248C216 254.365 218.528 260.469 223.029 264.97C227.53 269.471 233.635 272 240 272H248V320H240V317.2C239.954 312.975 238.808 308.836 236.676 305.189C234.543 301.541 231.498 298.512 227.84 296.4C220.202 291.952 213.725 285.759 208.94 278.327C204.154 270.896 201.196 262.438 200.306 253.644C199.417 244.85 200.621 235.97 203.822 227.731C207.022 219.492 212.127 212.127 218.72 206.24C224.609 200.926 231.571 196.941 239.135 194.553C246.699 192.165 254.688 191.431 262.56 192.4C274.235 193.787 285.177 198.813 293.836 206.766C302.494 214.719 308.43 225.195 310.803 236.71C313.175 248.225 311.862 260.195 307.052 270.923C302.241 281.65 294.176 290.592 284 296.48ZM264 256V248C264 246.417 264.469 244.871 265.348 243.555C266.227 242.24 267.477 241.214 268.938 240.609C270.4 240.003 272.009 239.845 273.561 240.153C275.112 240.462 276.538 241.224 277.657 242.343C278.776 243.462 279.538 244.887 279.846 246.439C280.155 247.991 279.996 249.599 279.391 251.061C278.785 252.523 277.76 253.772 276.444 254.651C275.129 255.53 273.582 256 272 256H264Z" fill="#121827"/>
<path d="M256 168C258.122 168 260.157 167.157 261.657 165.657C263.157 164.157 264 162.122 264 160V152C264 149.878 263.157 147.843 261.657 146.343C260.157 144.843 258.122 144 256 144C253.878 144 251.843 144.843 250.343 146.343C248.843 147.843 248 149.878 248 152V160C248 162.122 248.843 164.157 250.343 165.657C251.843 167.157 253.878 168 256 168Z" fill="#121827"/>
<path d="M205.072 175.792C205.775 177.01 206.786 178.02 208.003 178.722C209.221 179.425 210.602 179.794 212.008 179.792C213.414 179.795 214.795 179.422 216.008 178.712C217.843 177.651 219.182 175.905 219.731 173.858C220.28 171.811 219.994 169.629 218.936 167.792L214.936 160.864C213.868 159.042 212.122 157.716 210.079 157.176C208.037 156.636 205.864 156.926 204.034 157.982C202.205 159.038 200.867 160.775 200.314 162.814C199.76 164.853 200.036 167.028 201.08 168.864L205.072 175.792Z" fill="#121827"/>
<path d="M168.864 206.928L175.792 210.928C177.628 211.972 179.803 212.247 181.842 211.694C183.881 211.14 185.618 209.803 186.674 207.973C187.73 206.144 188.02 203.971 187.48 201.928C186.94 199.886 185.614 198.14 183.792 197.072L176.864 193.072C175.028 192.028 172.853 191.752 170.814 192.306C168.775 192.859 167.038 194.197 165.982 196.026C164.925 197.856 164.636 200.029 165.176 202.071C165.716 204.114 167.042 205.859 168.864 206.928Z" fill="#121827"/>
<path d="M160 256H168C170.122 256 172.157 255.157 173.657 253.657C175.157 252.157 176 250.122 176 248C176 245.878 175.157 243.843 173.657 242.343C172.157 240.843 170.122 240 168 240H160C157.878 240 155.843 240.843 154.343 242.343C152.843 243.843 152 245.878 152 248C152 250.122 152.843 252.157 154.343 253.657C155.843 255.157 157.878 256 160 256Z" fill="#121827"/>
<path d="M175.792 285.072L168.864 289.072C167.947 289.593 167.142 290.291 166.496 291.125C165.849 291.959 165.374 292.912 165.098 293.93C164.821 294.948 164.749 296.011 164.885 297.058C165.021 298.104 165.362 299.113 165.89 300.026C166.417 300.94 167.121 301.74 167.959 302.381C168.797 303.022 169.753 303.491 170.773 303.761C171.793 304.03 172.857 304.096 173.902 303.953C174.947 303.81 175.954 303.461 176.864 302.928L183.792 298.928C185.615 297.859 186.94 296.114 187.48 294.071C188.02 292.029 187.731 289.856 186.674 288.026C185.618 286.197 183.881 284.859 181.842 284.306C179.803 283.752 177.629 284.028 175.792 285.072Z" fill="#121827"/>
<path d="M296 178.712C297.213 179.423 298.594 179.796 300 179.792C301.406 179.794 302.787 179.425 304.005 178.722C305.222 178.02 306.233 177.01 306.936 175.792L310.936 168.864C311.47 167.954 311.818 166.947 311.961 165.902C312.104 164.857 312.039 163.794 311.769 162.774C311.499 161.754 311.03 160.797 310.39 159.959C309.749 159.121 308.948 158.418 308.035 157.89C307.121 157.363 306.112 157.021 305.066 156.885C304.02 156.749 302.957 156.821 301.939 157.098C300.92 157.374 299.967 157.849 299.133 158.496C298.299 159.142 297.602 159.947 297.08 160.864L293.08 167.792C292.021 169.628 291.734 171.809 292.281 173.856C292.829 175.904 294.166 177.65 296 178.712Z" fill="#121827"/>
<path d="M332.216 212C333.621 212.003 335.001 211.633 336.216 210.928L343.144 206.928C344.966 205.859 346.292 204.114 346.832 202.071C347.372 200.029 347.082 197.856 346.026 196.026C344.97 194.197 343.233 192.859 341.194 192.306C339.155 191.752 336.98 192.028 335.144 193.072L328.216 197.072C326.691 197.952 325.499 199.312 324.825 200.939C324.151 202.566 324.033 204.369 324.489 206.07C324.945 207.771 325.949 209.275 327.346 210.347C328.743 211.419 330.455 212 332.216 212Z" fill="#121827"/>
<path d="M336 248C336 250.122 336.843 252.157 338.343 253.657C339.843 255.157 341.878 256 344 256H352C354.122 256 356.157 255.157 357.657 253.657C359.157 252.157 360 250.122 360 248C360 245.878 359.157 243.843 357.657 242.343C356.157 240.843 354.122 240 352 240H344C341.878 240 339.843 240.843 338.343 242.343C336.843 243.843 336 245.878 336 248Z" fill="#121827"/>
<path d="M343.136 289.072L336.208 285.072C334.372 284.028 332.197 283.752 330.158 284.306C328.119 284.859 326.382 286.197 325.326 288.026C324.269 289.856 323.98 292.029 324.52 294.071C325.06 296.114 326.386 297.859 328.208 298.928L335.136 302.928C336.046 303.461 337.053 303.81 338.098 303.953C339.144 304.096 340.207 304.03 341.227 303.761C342.247 303.491 343.203 303.022 344.041 302.381C344.88 301.74 345.583 300.94 346.11 300.026C346.638 299.113 346.979 298.104 347.115 297.058C347.251 296.011 347.179 294.948 346.902 293.93C346.626 292.912 346.151 291.959 345.505 291.125C344.858 290.291 344.053 289.593 343.136 289.072Z" fill="#121827"/>
</svg>
