<svg width="512" height="512" viewBox="0 0 512 512" fill="none" xmlns="http://www.w3.org/2000/svg">
<path d="M160 152C168.837 152 176 144.837 176 136C176 127.163 168.837 120 160 120C151.163 120 144 127.163 144 136C144 144.837 151.163 152 160 152Z" fill="#121827"/>
<path d="M488 416H480V368C479.97 348.914 472.375 330.617 458.879 317.121C445.383 303.625 427.086 296.03 408 296H400V285.92C406.278 281.531 411.59 275.902 415.608 269.38C419.625 262.858 422.264 255.581 423.36 248H432C436.853 248.018 441.597 246.558 445.601 243.815C449.605 241.072 452.68 237.176 454.416 232.643C456.153 228.111 456.469 223.158 455.323 218.442C454.177 213.726 451.623 209.47 448 206.24V160C448 149.391 443.786 139.217 436.284 131.716C428.783 124.214 418.609 120 408 120H400C395.24 120.002 390.589 121.423 386.64 124.08C383.146 117.978 378.103 112.908 372.02 109.382C365.937 105.856 359.031 103.999 352 104H296C293.878 104 291.843 104.843 290.343 106.343C288.843 107.843 288 109.878 288 112V206.24C284.377 209.47 281.823 213.726 280.677 218.442C279.531 223.158 279.847 228.111 281.584 232.643C283.32 237.176 286.395 241.072 290.399 243.815C294.403 246.558 299.147 248.018 304 248H312.64C313.736 255.581 316.375 262.858 320.392 269.38C324.41 275.902 329.722 281.531 336 285.92V296H312C303.991 296.039 296.082 297.785 288.8 301.12C286.822 297.172 283.783 293.854 280.024 291.536C276.266 289.219 271.936 287.994 267.52 288H108.48C104.831 288 101.23 288.832 97.9508 290.432C94.6716 292.033 91.8006 294.36 89.556 297.237C87.3115 300.114 85.7526 303.465 84.9977 307.035C84.2429 310.605 84.3121 314.301 85.2 317.84L109.2 413.84C109.36 414.56 109.68 415.28 109.92 416H24C21.8783 416 19.8434 416.843 18.3431 418.343C16.8429 419.843 16 421.878 16 424V456C16 458.122 16.8429 460.157 18.3431 461.657C19.8434 463.157 21.8783 464 24 464H32V488C32 490.122 32.8429 492.157 34.3431 493.657C35.8434 495.157 37.8783 496 40 496C42.1217 496 44.1566 495.157 45.6569 493.657C47.1571 492.157 48 490.122 48 488V464H464V488C464 490.122 464.843 492.157 466.343 493.657C467.843 495.157 469.878 496 472 496C474.122 496 476.157 495.157 477.657 493.657C479.157 492.157 480 490.122 480 488V464H488C490.122 464 492.157 463.157 493.657 461.657C495.157 460.157 496 458.122 496 456V424C496 421.878 495.157 419.843 493.657 418.343C492.157 416.843 490.122 416 488 416ZM440 224C440 226.122 439.157 228.157 437.657 229.657C436.157 231.157 434.122 232 432 232H424V216H432C434.122 216 436.157 216.843 437.657 218.343C439.157 219.843 440 221.878 440 224ZM312 232H304C301.878 232 299.843 231.157 298.343 229.657C296.843 228.157 296 226.122 296 224C296 221.878 296.843 219.843 298.343 218.343C299.843 216.843 301.878 216 304 216H312V232ZM312 200H304V120H352C358.359 120.019 364.453 122.554 368.95 127.05C373.446 131.547 375.981 137.641 376 144C376 146.122 376.843 148.157 378.343 149.657C379.843 151.157 381.878 152 384 152C386.122 152 388.157 151.157 389.657 149.657C391.157 148.157 392 146.122 392 144C392 141.878 392.843 139.843 394.343 138.343C395.843 136.843 397.878 136 400 136H408C414.359 136.019 420.453 138.554 424.95 143.05C429.446 147.547 431.981 153.641 432 160V200H424C423.981 193.641 421.446 187.547 416.95 183.05C412.453 178.554 406.359 176.019 400 176H336C329.641 176.019 323.547 178.554 319.05 183.05C314.554 187.547 312.019 193.641 312 200ZM328 240V200C328 197.878 328.843 195.843 330.343 194.343C331.843 192.843 333.878 192 336 192H400C402.122 192 404.157 192.843 405.657 194.343C407.157 195.843 408 197.878 408 200V240C408 250.609 403.786 260.783 396.284 268.284C388.783 275.786 378.609 280 368 280C357.391 280 347.217 275.786 339.716 268.284C332.214 260.783 328 250.609 328 240ZM395.28 312H400V332.16L382.24 325.04L395.28 312ZM368 316.72L352 300.72V293.68C362.442 296.773 373.558 296.773 384 293.68V300.72L368 316.72ZM336 312H340.72L353.76 325.04L336 332.16V312ZM312 312H320V344C320 346.122 320.843 348.157 322.343 349.657C323.843 351.157 325.878 352 328 352C329.014 352.016 330.021 351.825 330.96 351.44L368 336.64L405.04 351.44C405.979 351.825 406.986 352.016 408 352C410.122 352 412.157 351.157 413.657 349.657C415.157 348.157 416 346.122 416 344V312.64C429.317 314.562 441.496 321.215 450.311 331.38C459.125 341.546 463.984 354.545 464 368V384H432V368C432 365.878 431.157 363.843 429.657 362.343C428.157 360.843 426.122 360 424 360C421.878 360 419.843 360.843 418.343 362.343C416.843 363.843 416 365.878 416 368V416H371.52C374.43 411.169 375.978 405.64 376 400V392C376 389.878 375.157 387.843 373.657 386.343C372.157 384.843 370.122 384 368 384H310.24L293.44 316.64C299.149 313.584 305.525 311.99 312 312ZM464 400V416H432V400H464ZM360 400C359.987 404.24 358.298 408.302 355.3 411.3C352.302 414.298 348.24 415.987 344 416H318.24L314.24 400H360ZM100.72 313.92C100.433 312.738 100.414 311.508 100.663 310.317C100.912 309.127 101.423 308.008 102.16 307.04C102.913 306.087 103.874 305.317 104.969 304.791C106.064 304.264 107.265 303.993 108.48 304H267.52C269.307 304.001 271.041 304.601 272.448 305.703C273.854 306.805 274.851 308.346 275.28 310.08L301.76 416H132.48C130.693 415.999 128.959 415.399 127.552 414.297C126.146 413.195 125.149 411.654 124.72 409.92L100.72 313.92ZM480 448H32V432H480V448Z" fill="#121827"/>
<path d="M232 16H40C33.6406 16.019 27.5472 18.5537 23.0504 23.0504C18.5537 27.5472 16.019 33.6406 16 40V232C16.019 238.359 18.5537 244.453 23.0504 248.95C27.5472 253.446 33.6406 255.981 40 256H141.2L179.04 286.24C180.435 287.392 182.191 288.015 184 288C185.195 288.021 186.377 287.746 187.44 287.2C188.801 286.552 189.952 285.532 190.759 284.258C191.565 282.984 191.996 281.508 192 280V256H232C238.359 255.981 244.453 253.446 248.95 248.95C253.446 244.453 255.981 238.359 256 232V40C255.981 33.6406 253.446 27.5472 248.95 23.0504C244.453 18.5537 238.359 16.019 232 16ZM240 232C240 234.122 239.157 236.157 237.657 237.657C236.157 239.157 234.122 240 232 240H184C181.878 240 179.843 240.843 178.343 242.343C176.843 243.843 176 245.878 176 248V263.36L148.96 241.76C147.56 240.618 145.807 239.996 144 240H40C37.8783 240 35.8434 239.157 34.3431 237.657C32.8429 236.157 32 234.122 32 232V80H240V232ZM240 64H32V40C32 37.8783 32.8429 35.8434 34.3431 34.3431C35.8434 32.8429 37.8783 32 40 32H232C234.122 32 236.157 32.8429 237.657 34.3431C239.157 35.8434 240 37.8783 240 40V64Z" fill="#121827"/>
<path d="M216 96H56C53.8783 96 51.8434 96.8429 50.3431 98.3431C48.8429 99.8434 48 101.878 48 104V216C48 218.122 48.8429 220.157 50.3431 221.657C51.8434 223.157 53.8783 224 56 224H216C218.122 224 220.157 223.157 221.657 221.657C223.157 220.157 224 218.122 224 216V104C224 101.878 223.157 99.8434 221.657 98.3431C220.157 96.8429 218.122 96 216 96ZM72.64 208L119.6 149.36L160.64 208H72.64ZM180.16 208L173.36 198.32L184 182.4L201.04 208H180.16ZM208 189.6L190.64 163.6C189.915 162.5 188.93 161.595 187.772 160.967C186.613 160.339 185.318 160.007 184 160C182.691 160.005 181.403 160.328 180.246 160.941C179.089 161.554 178.099 162.439 177.36 163.52L163.52 184.24L126.56 131.44C125.848 130.413 124.906 129.567 123.809 128.969C122.711 128.372 121.489 128.04 120.24 128C118.995 127.95 117.757 128.2 116.629 128.729C115.501 129.258 114.517 130.051 113.76 131.04L64 193.2V112H208V189.6Z" fill="#121827"/>
<path d="M352 232C354.122 232 356.157 231.157 357.657 229.657C359.157 228.157 360 226.122 360 224V216C360 213.878 359.157 211.843 357.657 210.343C356.157 208.843 354.122 208 352 208C349.878 208 347.843 208.843 346.343 210.343C344.843 211.843 344 213.878 344 216V224C344 226.122 344.843 228.157 346.343 229.657C347.843 231.157 349.878 232 352 232Z" fill="#121827"/>
<path d="M384 232C386.122 232 388.157 231.157 389.657 229.657C391.157 228.157 392 226.122 392 224V216C392 213.878 391.157 211.843 389.657 210.343C388.157 208.843 386.122 208 384 208C381.878 208 379.843 208.843 378.343 210.343C376.843 211.843 376 213.878 376 216V224C376 226.122 376.843 228.157 378.343 229.657C379.843 231.157 381.878 232 384 232Z" fill="#121827"/>
<path d="M368 262.616C372.022 262.624 376.006 261.836 379.722 260.298C383.439 258.761 386.815 256.503 389.656 253.656C391.113 252.148 391.919 250.127 391.901 248.029C391.883 245.932 391.042 243.925 389.558 242.442C388.075 240.959 386.069 240.117 383.971 240.099C381.873 240.081 379.853 240.887 378.344 242.344C375.598 245.083 371.878 246.621 368 246.621C364.122 246.621 360.402 245.083 357.656 242.344C356.147 240.887 354.126 240.081 352.029 240.099C349.931 240.117 347.925 240.959 346.441 242.442C344.958 243.925 344.117 245.932 344.098 248.029C344.08 250.127 344.887 252.148 346.344 253.656C349.185 256.503 352.561 258.761 356.277 260.298C359.994 261.836 363.978 262.624 368 262.616Z" fill="#121827"/>
<path d="M368 376C370.122 376 372.157 375.157 373.657 373.657C375.157 372.157 376 370.122 376 368V360C376 357.878 375.157 355.843 373.657 354.343C372.157 352.843 370.122 352 368 352C365.878 352 363.843 352.843 362.343 354.343C360.843 355.843 360 357.878 360 360V368C360 370.122 360.843 372.157 362.343 373.657C363.843 375.157 365.878 376 368 376Z" fill="#121827"/>
<path d="M200 336C195.253 336 190.613 337.408 186.666 340.045C182.72 342.682 179.643 346.43 177.827 350.816C176.01 355.201 175.535 360.027 176.461 364.682C177.387 369.338 179.673 373.614 183.029 376.971C186.386 380.327 190.662 382.613 195.318 383.539C199.973 384.465 204.799 383.99 209.184 382.173C213.57 380.357 217.318 377.28 219.955 373.334C222.592 369.387 224 364.747 224 360C224 353.635 221.471 347.53 216.971 343.029C212.47 338.529 206.365 336 200 336ZM200 368C198.418 368 196.871 367.531 195.555 366.652C194.24 365.773 193.214 364.523 192.609 363.061C192.003 361.6 191.845 359.991 192.154 358.439C192.462 356.887 193.224 355.462 194.343 354.343C195.462 353.224 196.887 352.462 198.439 352.154C199.991 351.845 201.6 352.003 203.061 352.609C204.523 353.214 205.773 354.24 206.652 355.555C207.531 356.871 208 358.418 208 360C208 362.122 207.157 364.157 205.657 365.657C204.157 367.157 202.122 368 200 368Z" fill="#121827"/>
<path d="M48 56H56C58.1217 56 60.1566 55.1571 61.6569 53.6569C63.1571 52.1566 64 50.1217 64 48C64 45.8783 63.1571 43.8434 61.6569 42.3431C60.1566 40.8429 58.1217 40 56 40H48C45.8783 40 43.8434 40.8429 42.3431 42.3431C40.8429 43.8434 40 45.8783 40 48C40 50.1217 40.8429 52.1566 42.3431 53.6569C43.8434 55.1571 45.8783 56 48 56Z" fill="#121827"/>
<path d="M80 56H88C90.1217 56 92.1566 55.1571 93.6569 53.6569C95.1571 52.1566 96 50.1217 96 48C96 45.8783 95.1571 43.8434 93.6569 42.3431C92.1566 40.8429 90.1217 40 88 40H80C77.8783 40 75.8434 40.8429 74.3431 42.3431C72.8429 43.8434 72 45.8783 72 48C72 50.1217 72.8429 52.1566 74.3431 53.6569C75.8434 55.1571 77.8783 56 80 56Z" fill="#121827"/>
<path d="M112 56H120C122.122 56 124.157 55.1571 125.657 53.6569C127.157 52.1566 128 50.1217 128 48C128 45.8783 127.157 43.8434 125.657 42.3431C124.157 40.8429 122.122 40 120 40H112C109.878 40 107.843 40.8429 106.343 42.3431C104.843 43.8434 104 45.8783 104 48C104 50.1217 104.843 52.1566 106.343 53.6569C107.843 55.1571 109.878 56 112 56Z" fill="#121827"/>
<path d="M152 56H224C226.122 56 228.157 55.1571 229.657 53.6569C231.157 52.1566 232 50.1217 232 48C232 45.8783 231.157 43.8434 229.657 42.3431C228.157 40.8429 226.122 40 224 40H152C149.878 40 147.843 40.8429 146.343 42.3431C144.843 43.8434 144 45.8783 144 48C144 50.1217 144.843 52.1566 146.343 53.6569C147.843 55.1571 149.878 56 152 56Z" fill="#121827"/>
</svg>
