<svg width="512" height="512" viewBox="0 0 512 512" fill="none" xmlns="http://www.w3.org/2000/svg">
<path d="M488 416H480V136C480 125.391 475.786 115.217 468.284 107.716C460.783 100.214 450.609 96 440 96H392V88C391.984 85.8791 391.154 83.8455 389.68 82.32L325.68 18.32C324.155 16.8464 322.121 16.0158 320 16H128C125.878 16 123.843 16.8429 122.343 18.3431C120.843 19.8434 120 21.8783 120 24V96H72C61.3913 96 51.2172 100.214 43.7157 107.716C36.2143 115.217 32 125.391 32 136V416H24C21.8783 416 19.8434 416.843 18.3431 418.343C16.8429 419.843 16 421.878 16 424V456C16 466.609 20.2143 476.783 27.7157 484.284C35.2172 491.786 45.3913 496 56 496H456C466.609 496 476.783 491.786 484.284 484.284C491.786 476.783 496 466.609 496 456V424C496 421.878 495.157 419.843 493.657 418.343C492.157 416.843 490.122 416 488 416ZM392 144H432V384H80V144H120V176H104C101.878 176 99.8434 176.843 98.3431 178.343C96.8429 179.843 96 181.878 96 184V312C96 314.122 96.8429 316.157 98.3431 317.657C99.8434 319.157 101.878 320 104 320H120V360C120 362.122 120.843 364.157 122.343 365.657C123.843 367.157 125.878 368 128 368H384C386.122 368 388.157 367.157 389.657 365.657C391.157 364.157 392 362.122 392 360V320H408C410.122 320 412.157 319.157 413.657 317.657C415.157 316.157 416 314.122 416 312V184C416 181.878 415.157 179.843 413.657 178.343C412.157 176.843 410.122 176 408 176H392V144ZM136 352V320H376V352H136ZM328 43.28L364.72 80H328V43.28ZM136 32H312V88C312 90.1217 312.843 92.1566 314.343 93.6569C315.843 95.1571 317.878 96 320 96H376V176H136V32ZM400 192V304H112V192H400ZM48 136C48.019 129.641 50.5537 123.547 55.0504 119.05C59.5472 114.554 65.6406 112.019 72 112H120V128H72C69.8783 128 67.8434 128.843 66.3431 130.343C64.8429 131.843 64 133.878 64 136V392C64 394.122 64.8429 396.157 66.3431 397.657C67.8434 399.157 69.8783 400 72 400H440C442.122 400 444.157 399.157 445.657 397.657C447.157 396.157 448 394.122 448 392V136C448 133.878 447.157 131.843 445.657 130.343C444.157 128.843 442.122 128 440 128H392V112H440C446.359 112.019 452.453 114.554 456.95 119.05C461.446 123.547 463.981 129.641 464 136V416H48V136ZM296 432V440C296 442.122 295.157 444.157 293.657 445.657C292.157 447.157 290.122 448 288 448H224C221.878 448 219.843 447.157 218.343 445.657C216.843 444.157 216 442.122 216 440V432H296ZM480 456C479.981 462.359 477.446 468.453 472.95 472.95C468.453 477.446 462.359 479.981 456 480H56C49.6406 479.981 43.5472 477.446 39.0504 472.95C34.5537 468.453 32.019 462.359 32 456V432H200V440C200.019 446.359 202.554 452.453 207.05 456.95C211.547 461.446 217.641 463.981 224 464H288C294.359 463.981 300.453 461.446 304.95 456.95C309.446 452.453 311.981 446.359 312 440V432H480V456Z" fill="#121827"/>
<path d="M312 288H344C346.122 288 348.157 287.157 349.657 285.657C351.157 284.157 352 282.122 352 280C352 277.878 351.157 275.843 349.657 274.343C348.157 272.843 346.122 272 344 272H320V216C320 213.878 319.157 211.843 317.657 210.343C316.157 208.843 314.122 208 312 208C309.878 208 307.843 208.843 306.343 210.343C304.843 211.843 304 213.878 304 216V280C304 282.122 304.843 284.157 306.343 285.657C307.843 287.157 309.878 288 312 288Z" fill="#121827"/>
<path d="M232 288C234.122 288 236.157 287.158 237.657 285.657C239.157 284.157 240 282.122 240 280V244.88L249.144 260.12C249.907 261.234 250.931 262.145 252.125 262.775C253.32 263.404 254.65 263.733 256 263.733C257.35 263.733 258.68 263.404 259.875 262.775C261.069 262.145 262.093 261.234 262.856 260.12L272 244.88V280C272 282.122 272.843 284.157 274.343 285.657C275.843 287.158 277.878 288 280 288C282.122 288 284.157 287.158 285.657 285.657C287.157 284.157 288 282.122 288 280V216C287.999 214.252 287.426 212.551 286.367 211.16C285.309 209.768 283.823 208.761 282.138 208.294C280.453 207.827 278.661 207.924 277.037 208.572C275.412 209.22 274.045 210.382 273.144 211.88L256 240.448L238.856 211.88C237.955 210.382 236.588 209.22 234.963 208.572C233.339 207.924 231.547 207.827 229.862 208.294C228.177 208.761 226.691 209.768 225.633 211.16C224.574 212.551 224.001 214.252 224 216V280C224 282.122 224.843 284.157 226.343 285.657C227.843 287.158 229.878 288 232 288Z" fill="#121827"/>
<path d="M155.2 286.4C156.897 287.673 159.031 288.22 161.131 287.92C163.232 287.62 165.127 286.497 166.4 284.8L184 261.336L201.6 284.8C202.873 286.497 204.768 287.62 206.869 287.92C208.969 288.22 211.103 287.673 212.8 286.4C214.497 285.127 215.62 283.232 215.92 281.131C216.22 279.031 215.673 276.897 214.4 275.2L194 248L214.4 220.8C215.03 219.96 215.489 219.003 215.75 217.985C216.01 216.968 216.068 215.909 215.92 214.869C215.771 213.829 215.419 212.828 214.884 211.924C214.349 211.02 213.641 210.23 212.8 209.6C211.96 208.97 211.003 208.511 209.985 208.25C208.968 207.99 207.909 207.932 206.869 208.08C205.829 208.229 204.828 208.581 203.924 209.116C203.02 209.652 202.23 210.36 201.6 211.2L184 234.664L166.4 211.2C165.127 209.503 163.232 208.38 161.131 208.08C159.031 207.78 156.897 208.327 155.2 209.6C153.503 210.873 152.38 212.768 152.08 214.869C151.78 216.969 152.327 219.103 153.6 220.8L174 248L153.6 275.2C152.97 276.041 152.511 276.997 152.25 278.015C151.99 279.032 151.932 280.091 152.08 281.131C152.229 282.171 152.581 283.172 153.116 284.076C153.652 284.98 154.36 285.77 155.2 286.4Z" fill="#121827"/>
</svg>
