<svg width="512" height="512" viewBox="0 0 512 512" fill="none" xmlns="http://www.w3.org/2000/svg">
<path d="M496 360V56C496 45.3913 491.786 35.2172 484.284 27.7157C476.783 20.2143 466.609 16 456 16H56C45.3913 16 35.2172 20.2143 27.7157 27.7157C20.2143 35.2172 16 45.3913 16 56V360C16 370.609 20.2143 380.783 27.7157 388.284C35.2172 395.786 45.3913 400 56 400H200V448H152C145.641 448.019 139.547 450.554 135.05 455.05C130.554 459.547 128.019 465.641 128 472V488C128 490.122 128.843 492.157 130.343 493.657C131.843 495.157 133.878 496 136 496H376C378.122 496 380.157 495.157 381.657 493.657C383.157 492.157 384 490.122 384 488V472C383.981 465.641 381.446 459.547 376.95 455.05C372.453 450.554 366.359 448.019 360 448H312V400H359.12C395.52 433.36 453.6 486.56 453.6 486.56C458.291 490.853 464.457 493.171 470.814 493.031C477.171 492.89 483.229 490.302 487.726 485.806C492.222 481.309 494.81 475.251 494.951 468.894C495.091 462.537 492.773 456.371 488.48 451.68C488.48 451.68 466.08 427.12 441.2 400H456C466.609 400 476.783 395.786 484.284 388.284C491.786 380.783 496 370.609 496 360ZM32 56C32.019 49.6406 34.5537 43.5472 39.0504 39.0504C43.5472 34.5537 49.6406 32.019 56 32H456C462.359 32.019 468.453 34.5537 472.95 39.0504C477.446 43.5472 479.981 49.6406 480 56V336H382.56L375.6 328.4L330.32 283.12C328.87 281.68 326.923 280.85 324.88 280.8C324.399 271.028 320.291 261.786 313.36 254.88C299.84 241.28 250.96 231.76 241.28 230C240.001 229.775 238.686 229.862 237.447 230.251C236.208 230.641 235.08 231.323 234.16 232.24C233.25 233.163 232.578 234.293 232.202 235.534C231.826 236.774 231.756 238.087 232 239.36C233.76 248.96 243.2 297.84 256.8 311.44C263.765 318.321 273.021 322.394 282.8 322.88C282.811 324.955 283.645 326.94 285.12 328.4L292.72 336H32V56ZM324.72 300.08L358.64 334.08L336 356.72L302.08 322.72L324.72 300.08ZM268.08 300.08C261.92 293.92 254.64 268.96 250.08 248.08C270.96 252.72 295.84 260 302.08 266.16C306.578 270.669 309.101 276.78 309.093 283.148C309.086 289.517 306.549 295.622 302.04 300.12C297.531 304.618 291.42 307.141 285.052 307.133C278.683 307.126 272.578 304.589 268.08 300.08ZM360 464C362.122 464 364.157 464.843 365.657 466.343C367.157 467.843 368 469.878 368 472V480H144V472C144 469.878 144.843 467.843 146.343 466.343C147.843 464.843 149.878 464 152 464H360ZM216 448V400H296V448H216ZM56 384C49.6406 383.981 43.5472 381.446 39.0504 376.95C34.5537 372.453 32.019 366.359 32 360V352H308.72L330.32 373.68C330.32 373.68 334.64 377.6 341.6 384H56ZM476.72 462.48C478.237 464.137 479.056 466.315 479.007 468.561C478.957 470.806 478.043 472.946 476.455 474.535C474.866 476.123 472.726 477.037 470.481 477.087C468.235 477.136 466.057 476.317 464.4 474.8L347.6 367.76L369.68 345.6L476.72 462.48ZM426.56 384C416 372.48 405.76 361.28 397.2 352H480V360C479.981 366.359 477.446 372.453 472.95 376.95C468.453 381.446 462.359 383.981 456 384H426.56Z" fill="#121827"/>
<path d="M264 360H248C245.878 360 243.843 360.843 242.343 362.343C240.843 363.843 240 365.878 240 368C240 370.122 240.843 372.157 242.343 373.657C243.843 375.157 245.878 376 248 376H264C266.122 376 268.157 375.157 269.657 373.657C271.157 372.157 272 370.122 272 368C272 365.878 271.157 363.843 269.657 362.343C268.157 360.843 266.122 360 264 360Z" fill="#121827"/>
<path d="M152 256H144C141.878 256 139.843 256.843 138.343 258.343C136.843 259.843 136 261.878 136 264C136 266.122 136.843 268.157 138.343 269.657C139.843 271.157 141.878 272 144 272H152C154.122 272 156.157 271.157 157.657 269.657C159.157 268.157 160 266.122 160 264C160 261.878 159.157 259.843 157.657 258.343C156.157 256.843 154.122 256 152 256Z" fill="#121827"/>
<path d="M120 256H112C109.878 256 107.843 256.843 106.343 258.343C104.843 259.843 104 261.878 104 264C104 266.122 104.843 268.157 106.343 269.657C107.843 271.157 109.878 272 112 272H120C122.122 272 124.157 271.157 125.657 269.657C127.157 268.157 128 266.122 128 264C128 261.878 127.157 259.843 125.657 258.343C124.157 256.843 122.122 256 120 256Z" fill="#121827"/>
<path d="M184 256H176C173.878 256 171.843 256.843 170.343 258.343C168.843 259.843 168 261.878 168 264C168 266.122 168.843 268.157 170.343 269.657C171.843 271.157 173.878 272 176 272H184C186.122 272 188.157 271.157 189.657 269.657C191.157 268.157 192 266.122 192 264C192 261.878 191.157 259.843 189.657 258.343C188.157 256.843 186.122 256 184 256Z" fill="#121827"/>
<path d="M216 80H224C226.122 80 228.157 79.1571 229.657 77.6569C231.157 76.1566 232 74.1217 232 72C232 69.8783 231.157 67.8434 229.657 66.3431C228.157 64.8429 226.122 64 224 64H216C213.878 64 211.843 64.8429 210.343 66.3431C208.843 67.8434 208 69.8783 208 72C208 74.1217 208.843 76.1566 210.343 77.6569C211.843 79.1571 213.878 80 216 80Z" fill="#121827"/>
<path d="M248 120C250.122 120 252.157 119.157 253.657 117.657C255.157 116.157 256 114.122 256 112V104C256 101.878 255.157 99.8434 253.657 98.3431C252.157 96.8429 250.122 96 248 96C245.878 96 243.843 96.8429 242.343 98.3431C240.843 99.8434 240 101.878 240 104V112C240 114.122 240.843 116.157 242.343 117.657C243.843 119.157 245.878 120 248 120Z" fill="#121827"/>
<path d="M248 88C250.122 88 252.157 87.1571 253.657 85.6569C255.157 84.1566 256 82.1217 256 80V72C256 69.8783 255.157 67.8434 253.657 66.3431C252.157 64.8429 250.122 64 248 64C245.878 64 243.843 64.8429 242.343 66.3431C240.843 67.8434 240 69.8783 240 72V80C240 82.1217 240.843 84.1566 242.343 85.6569C243.843 87.1571 245.878 88 248 88Z" fill="#121827"/>
<path d="M184 80H192C194.122 80 196.157 79.1571 197.657 77.6569C199.157 76.1566 200 74.1217 200 72C200 69.8783 199.157 67.8434 197.657 66.3431C196.157 64.8429 194.122 64 192 64H184C181.878 64 179.843 64.8429 178.343 66.3431C176.843 67.8434 176 69.8783 176 72C176 74.1217 176.843 76.1566 178.343 77.6569C179.843 79.1571 181.878 80 184 80Z" fill="#121827"/>
<path d="M248 152C250.122 152 252.157 151.157 253.657 149.657C255.157 148.157 256 146.122 256 144V136C256 133.878 255.157 131.843 253.657 130.343C252.157 128.843 250.122 128 248 128C245.878 128 243.843 128.843 242.343 130.343C240.843 131.843 240 133.878 240 136V144C240 146.122 240.843 148.157 242.343 149.657C243.843 151.157 245.878 152 248 152Z" fill="#121827"/>
<path d="M248 216C250.122 216 252.157 215.157 253.657 213.657C255.157 212.157 256 210.122 256 208V200C256 197.878 255.157 195.843 253.657 194.343C252.157 192.843 250.122 192 248 192C245.878 192 243.843 192.843 242.343 194.343C240.843 195.843 240 197.878 240 200V208C240 210.122 240.843 212.157 242.343 213.657C243.843 215.157 245.878 216 248 216Z" fill="#121827"/>
<path d="M248 184C250.122 184 252.157 183.157 253.657 181.657C255.157 180.157 256 178.122 256 176V168C256 165.878 255.157 163.843 253.657 162.343C252.157 160.843 250.122 160 248 160C245.878 160 243.843 160.843 242.343 162.343C240.843 163.843 240 165.878 240 168V176C240 178.122 240.843 180.157 242.343 181.657C243.843 183.157 245.878 184 248 184Z" fill="#121827"/>
<path d="M216 256H208C205.878 256 203.843 256.843 202.343 258.343C200.843 259.843 200 261.878 200 264C200 266.122 200.843 268.157 202.343 269.657C203.843 271.157 205.878 272 208 272H216C218.122 272 220.157 271.157 221.657 269.657C223.157 268.157 224 266.122 224 264C224 261.878 223.157 259.843 221.657 258.343C220.157 256.843 218.122 256 216 256Z" fill="#121827"/>
<path d="M56 208C58.1217 208 60.1566 207.157 61.6569 205.657C63.1571 204.157 64 202.122 64 200V192C64 189.878 63.1571 187.843 61.6569 186.343C60.1566 184.843 58.1217 184 56 184C53.8783 184 51.8434 184.843 50.3431 186.343C48.8429 187.843 48 189.878 48 192V200C48 202.122 48.8429 204.157 50.3431 205.657C51.8434 207.157 53.8783 208 56 208Z" fill="#121827"/>
<path d="M152 80H160C162.122 80 164.157 79.1571 165.657 77.6569C167.157 76.1566 168 74.1217 168 72C168 69.8783 167.157 67.8434 165.657 66.3431C164.157 64.8429 162.122 64 160 64H152C149.878 64 147.843 64.8429 146.343 66.3431C144.843 67.8434 144 69.8783 144 72C144 74.1217 144.843 76.1566 146.343 77.6569C147.843 79.1571 149.878 80 152 80Z" fill="#121827"/>
<path d="M56 144C58.1217 144 60.1566 143.157 61.6569 141.657C63.1571 140.157 64 138.122 64 136V128C64 125.878 63.1571 123.843 61.6569 122.343C60.1566 120.843 58.1217 120 56 120C53.8783 120 51.8434 120.843 50.3431 122.343C48.8429 123.843 48 125.878 48 128V136C48 138.122 48.8429 140.157 50.3431 141.657C51.8434 143.157 53.8783 144 56 144Z" fill="#121827"/>
<path d="M56 240C58.1217 240 60.1566 239.157 61.6569 237.657C63.1571 236.157 64 234.122 64 232V224C64 221.878 63.1571 219.843 61.6569 218.343C60.1566 216.843 58.1217 216 56 216C53.8783 216 51.8434 216.843 50.3431 218.343C48.8429 219.843 48 221.878 48 224V232C48 234.122 48.8429 236.157 50.3431 237.657C51.8434 239.157 53.8783 240 56 240Z" fill="#121827"/>
<path d="M56 112C58.1217 112 60.1566 111.157 61.6569 109.657C63.1571 108.157 64 106.122 64 104V96C64 93.8783 63.1571 91.8434 61.6569 90.3431C60.1566 88.8429 58.1217 88 56 88C53.8783 88 51.8434 88.8429 50.3431 90.3431C48.8429 91.8434 48 93.8783 48 96V104C48 106.122 48.8429 108.157 50.3431 109.657C51.8434 111.157 53.8783 112 56 112Z" fill="#121827"/>
<path d="M56 272C58.1217 272 60.1566 271.157 61.6569 269.657C63.1571 268.157 64 266.122 64 264V256C64 253.878 63.1571 251.843 61.6569 250.343C60.1566 248.843 58.1217 248 56 248C53.8783 248 51.8434 248.843 50.3431 250.343C48.8429 251.843 48 253.878 48 256V264C48 266.122 48.8429 268.157 50.3431 269.657C51.8434 271.157 53.8783 272 56 272Z" fill="#121827"/>
<path d="M56 176C58.1217 176 60.1566 175.157 61.6569 173.657C63.1571 172.157 64 170.122 64 168V160C64 157.878 63.1571 155.843 61.6569 154.343C60.1566 152.843 58.1217 152 56 152C53.8783 152 51.8434 152.843 50.3431 154.343C48.8429 155.843 48 157.878 48 160V168C48 170.122 48.8429 172.157 50.3431 173.657C51.8434 175.157 53.8783 176 56 176Z" fill="#121827"/>
<path d="M56 80H64C66.1217 80 68.1566 79.1571 69.6569 77.6569C71.1571 76.1566 72 74.1217 72 72C72 69.8783 71.1571 67.8434 69.6569 66.3431C68.1566 64.8429 66.1217 64 64 64H56C53.8783 64 51.8434 64.8429 50.3431 66.3431C48.8429 67.8434 48 69.8783 48 72C48 74.1217 48.8429 76.1566 50.3431 77.6569C51.8434 79.1571 53.8783 80 56 80Z" fill="#121827"/>
<path d="M88 80H96C98.1217 80 100.157 79.1571 101.657 77.6569C103.157 76.1566 104 74.1217 104 72C104 69.8783 103.157 67.8434 101.657 66.3431C100.157 64.8429 98.1217 64 96 64H88C85.8783 64 83.8434 64.8429 82.3431 66.3431C80.8429 67.8434 80 69.8783 80 72C80 74.1217 80.8429 76.1566 82.3431 77.6569C83.8434 79.1571 85.8783 80 88 80Z" fill="#121827"/>
<path d="M120 80H128C130.122 80 132.157 79.1571 133.657 77.6569C135.157 76.1566 136 74.1217 136 72C136 69.8783 135.157 67.8434 133.657 66.3431C132.157 64.8429 130.122 64 128 64H120C117.878 64 115.843 64.8429 114.343 66.3431C112.843 67.8434 112 69.8783 112 72C112 74.1217 112.843 76.1566 114.343 77.6569C115.843 79.1571 117.878 80 120 80Z" fill="#121827"/>
<path d="M80 272H88C90.1217 272 92.1566 271.157 93.6569 269.657C95.1571 268.157 96 266.122 96 264C96 261.878 95.1571 259.843 93.6569 258.343C92.1566 256.843 90.1217 256 88 256H80C77.8783 256 75.8434 256.843 74.3431 258.343C72.8429 259.843 72 261.878 72 264C72 266.122 72.8429 268.157 74.3431 269.657C75.8434 271.157 77.8783 272 80 272Z" fill="#121827"/>
<path d="M88 240H216C218.122 240 220.157 239.157 221.657 237.657C223.157 236.157 224 234.122 224 232V104C224 101.878 223.157 99.8434 221.657 98.3431C220.157 96.8429 218.122 96 216 96H88C85.8783 96 83.8434 96.8429 82.3431 98.3431C80.8429 99.8434 80 101.878 80 104V232C80 234.122 80.8429 236.157 82.3431 237.657C83.8434 239.157 85.8783 240 88 240ZM96 112H208V224H96V112Z" fill="#121827"/>
<path d="M296 128H456C458.122 128 460.157 127.157 461.657 125.657C463.157 124.157 464 122.122 464 120V72C464 69.8783 463.157 67.8434 461.657 66.3431C460.157 64.8429 458.122 64 456 64H296C293.878 64 291.843 64.8429 290.343 66.3431C288.843 67.8434 288 69.8783 288 72V120C288 122.122 288.843 124.157 290.343 125.657C291.843 127.157 293.878 128 296 128ZM304 80H448V112H304V80Z" fill="#121827"/>
<path d="M296 208H456C458.122 208 460.157 207.157 461.657 205.657C463.157 204.157 464 202.122 464 200V152C464 149.878 463.157 147.843 461.657 146.343C460.157 144.843 458.122 144 456 144H296C293.878 144 291.843 144.843 290.343 146.343C288.843 147.843 288 149.878 288 152V200C288 202.122 288.843 204.157 290.343 205.657C291.843 207.157 293.878 208 296 208ZM304 160H448V192H304V160Z" fill="#121827"/>
<path d="M456 224H312C309.878 224 307.843 224.843 306.343 226.343C304.843 227.843 304 229.878 304 232C304 234.122 304.843 236.157 306.343 237.657C307.843 239.157 309.878 240 312 240H448V272H360C357.878 272 355.843 272.843 354.343 274.343C352.843 275.843 352 277.878 352 280C352 282.122 352.843 284.157 354.343 285.657C355.843 287.157 357.878 288 360 288H456C458.122 288 460.157 287.157 461.657 285.657C463.157 284.157 464 282.122 464 280V232C464 229.878 463.157 227.843 461.657 226.343C460.157 224.843 458.122 224 456 224Z" fill="#121827"/>
</svg>
