<?xml version="1.0" encoding="UTF-8"?>
<svg width="1636px" height="312px" viewBox="0 0 1636 312" version="1.1" xmlns="http://www.w3.org/2000/svg" xmlns:xlink="http://www.w3.org/1999/xlink">
    <!-- Generator: Sketch 58 (84663) - https://sketch.com -->
    <title>Group 2</title>
    <desc>Created with Sketch.</desc>
    <g id="Page-1" stroke="none" stroke-width="1" fill="none" fill-rule="evenodd">
        <g id="Group-2" transform="translate(0.000000, -54.000000)" fill-rule="nonzero">
            <g id="logomain-copy" transform="translate(0.000000, 54.000000)">
                <path d="M217.243,218.13 C182.961,208.44 146.543,206.925 111.546,213.677 C110.852,216.52 110.112,219.354 109.316,222.172 C103.433,242.984 94.7706,262.923 83.6669,281.442 C105.766,271.33 129.972,265.998 155,265.998 C197.788,265.998 238.186,281.558 269.73,310 L309.703,270.027 C283.367,245.708 251.582,227.836 217.243,218.13 Z" id="Path" fill="#CAF16D"></path>
                <path d="M194.584,194.59 C190.346,168.393 190.361,141.584 194.589,115.423 C181.505,117.539 168.269,118.596 155.037,118.596 C141.772,118.596 128.514,117.527 115.417,115.41 C119.654,141.609 119.641,168.421 115.411,194.585 C141.609,190.346 168.421,190.361 194.584,194.59 Z" id="Path" fill="#FECD60"></path>
                <path d="M96.3248,111.55 C93.4806,110.856 90.6472,110.112 87.8278,109.315 C67.016,103.433 47.0775,94.7704 28.5583,83.6666 C38.6699,105.765 44.0018,129.972 44.0018,155 C44.0018,197.789 28.4422,238.187 0,269.731 L39.9726,309.703 C64.2927,283.368 82.1647,251.583 91.8708,217.243 C101.56,182.963 103.076,146.546 96.3248,111.55 Z" id="Path" fill="#CAF16D"></path>
                <path d="M213.676,198.455 C216.52,199.149 219.354,199.889 222.172,200.685 C242.984,206.568 262.923,215.23 281.442,226.334 C271.33,204.235 265.998,180.028 265.998,155 C265.998,112.212 281.558,71.8141 310,40.2701 L270.027,0.297899 C245.707,26.6332 227.835,58.4183 218.129,92.7582 C208.44,127.04 206.925,163.458 213.676,198.455 Z" id="Path" fill="#CAF16D"></path>
                <path d="M92.7585,91.8712 C127.04,101.561 163.458,103.077 198.455,96.3246 C199.15,93.4809 199.889,90.647 200.686,87.8287 C206.568,67.0163 215.231,47.0776 226.334,28.559 C204.236,38.67 180.029,44.002 155,44.002 C112.212,44.002 71.8144,28.4424 40.2705,0 L0.298502,39.9728 C26.6331,64.2929 58.4181,82.165 92.7585,91.8712 Z" id="Path" fill="#CAF16D"></path>
            </g>
            <g id="Group" transform="translate(443.000000, 0.000000)" fill="#FFFFFF">
                <g id="DIGITORIUM-2">
                    <path d="M14.82,190 C12.6666559,190 11.59,188.923344 11.59,186.77 L11.59,60.23 C11.59,58.0766559 12.6666559,57 14.82,57 L61.37,57 C70.8700475,57 79.1982976,58.6783166 86.355,62.035 C93.5117025,65.3916834 99.0533137,70.1099696 102.98,76.19 C106.906686,82.2700304 108.87,89.2999601 108.87,97.28 L108.87,149.72 C108.87,157.70004 106.906686,164.72997 102.98,170.81 C99.0533137,176.89003 93.5117025,181.608317 86.355,184.965 C79.1982976,188.321683 70.8700475,190 61.37,190 L14.82,190 Z M38.38,165.87 C38.38,166.630004 38.7599962,167.01 39.52,167.01 L62.32,167.01 C68.1466958,167.01 72.864982,165.046686 76.475,161.12 C80.0850181,157.193314 81.9533327,151.9367 82.08,145.35 L82.08,101.65 C82.08,95.0633004 80.275018,89.8066863 76.665,85.88 C73.0549819,81.9533137 68.2100304,79.99 62.13,79.99 L39.52,79.99 C38.7599962,79.99 38.38,80.3699962 38.38,81.13 L38.38,165.87 Z M157.24,190 C155.086656,190 154.01,188.923344 154.01,186.77 L154.01,60.23 C154.01,58.0766559 155.086656,57 157.24,57 L177.57,57 C179.723344,57 180.8,58.0766559 180.8,60.23 L180.8,186.77 C180.8,188.923344 179.723344,190 177.57,190 L157.24,190 Z M275.72,191.52 C265.966618,191.52 257.353371,189.556686 249.88,185.63 C242.406629,181.703314 236.611687,176.225035 232.495,169.195 C228.378313,162.164965 226.32,154.026713 226.32,144.78 L226.32,102.22 C226.32,92.9732871 228.378313,84.8033688 232.495,77.71 C236.611687,70.6166312 242.406629,65.1383527 249.88,61.275 C257.353371,57.4116474 265.966618,55.48 275.72,55.48 C285.346715,55.48 293.864963,57.379981 301.275,61.18 C308.685037,64.980019 314.448313,70.141634 318.565,76.665 C322.681687,83.1883659 324.74,90.4399601 324.74,98.42 L324.74,98.8 C324.74,100.953344 323.663344,102.03 321.51,102.03 L301.18,102.03 C300.166662,102.03 299.375003,101.871668 298.805,101.555 C298.234997,101.238332 297.95,100.890002 297.95,100.51 L297.95,99.18 C297.95,93.3533042 295.923354,88.44502 291.87,84.455 C287.816646,80.4649801 282.433367,78.47 275.72,78.47 C268.879966,78.47 263.401687,80.5916454 259.285,84.835 C255.168313,89.0783545 253.11,94.6199658 253.11,101.46 L253.11,145.54 C253.11,152.380034 255.326644,157.921645 259.76,162.165 C264.193355,166.408355 269.829966,168.53 276.67,168.53 C283.2567,168.53 288.513314,166.788351 292.44,163.305 C296.366686,159.821649 298.33,154.976698 298.33,148.77 L298.33,140.41 C298.33,139.649996 297.950004,139.27 297.19,139.27 L277.05,139.27 C274.896656,139.27 273.82,138.193344 273.82,136.04 L273.82,120.46 C273.82,118.306656 274.896656,117.23 277.05,117.23 L321.51,117.23 C323.663344,117.23 324.74,118.306656 324.74,120.46 L324.74,144.59 C324.74,154.216715 322.713354,162.576631 318.66,169.67 C314.606646,176.763369 308.875037,182.178315 301.465,185.915 C294.054963,189.651685 285.473382,191.52 275.72,191.52 Z M372.54,190 C370.386656,190 369.31,188.923344 369.31,186.77 L369.31,60.23 C369.31,58.0766559 370.386656,57 372.54,57 L392.87,57 C395.023344,57 396.1,58.0766559 396.1,60.23 L396.1,186.77 C396.1,188.923344 395.023344,190 392.87,190 L372.54,190 Z M535.1,57 C537.253344,57 538.33,58.0766559 538.33,60.23 L538.33,76.95 C538.33,79.1033441 537.253344,80.18 535.1,80.18 L502.23,80.18 C501.469996,80.18 501.09,80.5599962 501.09,81.32 L501.09,186.77 C501.09,188.923344 500.013344,190 497.86,190 L477.53,190 C475.376656,190 474.3,188.923344 474.3,186.77 L474.3,81.32 C474.3,80.5599962 473.920004,80.18 473.16,80.18 L441.24,80.18 C439.086656,80.18 438.01,79.1033441 438.01,76.95 L438.01,60.23 C438.01,58.0766559 439.086656,57 441.24,57 L535.1,57 Z M622.42,192.09 C612.539951,192.09 603.831704,190.063354 596.295,186.01 C588.758296,181.956646 582.900021,176.28837 578.72,169.005 C574.539979,161.72163 572.45,153.330047 572.45,143.83 L572.45,103.17 C572.45,93.7966198 574.539979,85.5000361 578.72,78.28 C582.900021,71.0599639 588.758296,65.4550199 596.295,61.465 C603.831704,57.47498 612.539951,55.48 622.42,55.48 C632.426717,55.48 641.198296,57.47498 648.735,61.465 C656.271704,65.4550199 662.129979,71.0599639 666.31,78.28 C670.490021,85.5000361 672.58,93.7966198 672.58,103.17 L672.58,143.83 C672.58,153.330047 670.490021,161.753297 666.31,169.1 C662.129979,176.446703 656.271704,182.11498 648.735,186.105 C641.198296,190.09502 632.426717,192.09 622.42,192.09 Z M622.42,169.1 C629.386702,169.1 635.023312,166.883355 639.33,162.45 C643.636688,158.016644 645.79,152.126703 645.79,144.78 L645.79,102.98 C645.79,95.6332966 643.668355,89.7116891 639.425,85.215 C635.181645,80.7183108 629.513369,78.47 622.42,78.47 C615.453299,78.47 609.848355,80.7183108 605.605,85.215 C601.361645,89.7116891 599.24,95.6332966 599.24,102.98 L599.24,144.78 C599.24,152.126703 601.361645,158.016644 605.605,162.45 C609.848355,166.883355 615.453299,169.1 622.42,169.1 Z M791.82,190 C790.173325,190 788.906671,189.176675 788.02,187.53 L764.65,135.85 C764.396665,135.216664 763.953337,134.9 763.32,134.9 L746.03,134.9 C745.269996,134.9 744.89,135.279996 744.89,136.04 L744.89,186.77 C744.89,188.923344 743.813344,190 741.66,190 L721.33,190 C719.176656,190 718.1,188.923344 718.1,186.77 L718.1,60.04 C718.1,57.8866559 719.176656,56.81 721.33,56.81 L774.72,56.81 C782.826707,56.81 789.951636,58.4883166 796.095,61.845 C802.238364,65.2016834 806.988317,69.9199696 810.345,76 C813.701683,82.0800304 815.38,89.0466274 815.38,96.9 C815.38,105.513376 813.226688,112.923302 808.92,119.13 C804.613312,125.336698 798.660038,129.706654 791.06,132.24 C790.679998,132.366667 790.426667,132.588332 790.3,132.905 C790.173333,133.221668 790.236665,133.506665 790.49,133.76 L815.57,186.2 C815.950002,186.706669 816.14,187.276663 816.14,187.91 C816.14,188.543337 815.886669,189.049998 815.38,189.43 C814.873331,189.81 814.176671,190 813.29,190 L791.82,190 Z M746.03,79.99 C745.269996,79.99 744.89,80.3699962 744.89,81.13 L744.89,113.05 C744.89,113.810004 745.269996,114.19 746.03,114.19 L770.73,114.19 C776.050027,114.19 780.388317,112.638349 783.745,109.535 C787.101683,106.431651 788.78,102.346692 788.78,97.28 C788.78,92.213308 787.101683,88.0650161 783.745,84.835 C780.388317,81.6049838 776.050027,79.99 770.73,79.99 L746.03,79.99 Z M862.99,190 C860.836656,190 859.76,188.923344 859.76,186.77 L859.76,60.23 C859.76,58.0766559 860.836656,57 862.99,57 L883.32,57 C885.473344,57 886.55,58.0766559 886.55,60.23 L886.55,186.77 C886.55,188.923344 885.473344,190 883.32,190 L862.99,190 Z M982.99,191.52 C973.236618,191.52 964.655037,189.620019 957.245,185.82 C949.834963,182.019981 944.071687,176.668368 939.955,169.765 C935.838313,162.861632 933.78,154.913378 933.78,145.92 L933.78,60.23 C933.78,58.0766559 934.856656,57 937.01,57 L957.34,57 C959.493344,57 960.57,58.0766559 960.57,60.23 L960.57,146.11 C960.57,152.823367 962.628313,158.238313 966.745,162.355 C970.861687,166.471687 976.276633,168.53 982.99,168.53 C989.703367,168.53 995.118313,166.471687 999.235,162.355 C1003.35169,158.238313 1005.41,152.823367 1005.41,146.11 L1005.41,60.23 C1005.41,58.0766559 1006.48666,57 1008.64,57 L1028.97,57 C1031.12334,57 1032.2,58.0766559 1032.2,60.23 L1032.2,145.92 C1032.2,154.913378 1030.14169,162.861632 1026.025,169.765 C1021.90831,176.668368 1016.14504,182.019981 1008.735,185.82 C1001.32496,189.620019 992.743382,191.52 982.99,191.52 Z M1082.66,190 C1080.50666,190 1079.43,188.923344 1079.43,186.77 L1079.43,60.23 C1079.43,58.0766559 1080.50666,57 1082.66,57 L1102.99,57 C1104.63667,57 1105.90333,57.6966597 1106.79,59.09 L1134.34,103.55 C1134.59333,103.930002 1134.87833,104.12 1135.195,104.12 C1135.51167,104.12 1135.73333,103.930002 1135.86,103.55 L1163.79,59.09 C1164.67667,57.6966597 1165.94333,57 1167.59,57 L1187.92,57 C1190.07334,57 1191.15,58.0766559 1191.15,60.23 L1191.15,186.77 C1191.15,188.923344 1190.07334,190 1187.92,190 L1167.59,190 C1165.43666,190 1164.36,188.923344 1164.36,186.77 L1164.36,104.5 C1164.36,103.993331 1164.20167,103.676667 1163.885,103.55 C1163.56833,103.423333 1163.28333,103.613331 1163.03,104.12 L1143.84,135.47 C1142.95333,136.86334 1141.68667,137.56 1140.04,137.56 L1130.35,137.56 C1128.70333,137.56 1127.43667,136.86334 1126.55,135.47 L1107.55,104.12 C1107.29667,103.613331 1107.01167,103.423333 1106.695,103.55 C1106.37833,103.676667 1106.22,103.993331 1106.22,104.5 L1106.22,186.77 C1106.22,188.923344 1105.14334,190 1102.99,190 L1082.66,190 Z" id="DIGITORIUM"></path>
                </g>
                <g id="brilliant-solutions-2" transform="translate(0.000000, 252.000000)" fill-opacity="0.5">
                    <path d="M63.4541016,80.6865234 C63.4541016,90.6123543 61.2385475,98.5095735 56.807373,104.378418 C52.3761985,110.247262 46.2809633,113.181641 38.5214844,113.181641 C31.037723,113.181641 25.2083542,110.483588 21.0332031,105.087402 L20.3242188,112 L7.32617188,112 L7.32617188,21.25 L21.6831055,21.25 L21.6831055,54.2177734 C25.8188683,49.3336344 31.3922175,46.8916016 38.4033203,46.8916016 C46.2021874,46.8916016 52.3269634,49.7865921 56.777832,55.5766602 C61.2287006,61.3667282 63.4541016,69.4608855 63.4541016,79.859375 L63.4541016,80.6865234 Z M49.097168,79.4458008 C49.097168,72.5134745 47.8761515,67.3143077 45.434082,63.8481445 C42.9920125,60.3819814 39.4471261,58.6489258 34.7993164,58.6489258 C28.575978,58.6489258 24.2039514,61.366672 21.6831055,66.8022461 L21.6831055,93.152832 C24.2433396,98.7065707 28.6547538,101.483398 34.9174805,101.483398 C39.4077373,101.483398 42.8738485,99.8094243 45.315918,96.4614258 C47.7579875,93.1134273 49.0183915,88.0521172 49.097168,81.2773438 L49.097168,79.4458008 Z M123.447266,61.1894531 C121.556631,60.8743474 119.606944,60.7167969 117.598145,60.7167969 C111.020312,60.7167969 106.589204,63.237605 104.304688,68.2792969 L104.304688,112 L89.9477539,112 L89.9477539,48.0732422 L103.654785,48.0732422 L104.009277,55.222168 C107.475441,49.6684293 112.280731,46.8916016 118.425293,46.8916016 C120.47348,46.8916016 122.167148,47.167315 123.506348,47.71875 L123.447266,61.1894531 Z M162.289062,112 L147.932129,112 L147.932129,48.0732422 L162.289062,48.0732422 L162.289062,112 Z M147.045898,31.4711914 C147.045898,29.2654512 147.745029,27.4339266 149.143311,25.9765625 C150.541592,24.5191984 152.540514,23.7905273 155.140137,23.7905273 C157.739759,23.7905273 159.748528,24.5191984 161.166504,25.9765625 C162.58448,27.4339266 163.293457,29.2654512 163.293457,31.4711914 C163.293457,33.6375434 162.58448,35.4395273 161.166504,36.8771973 C159.748528,38.3148672 157.739759,39.0336914 155.140137,39.0336914 C152.540514,39.0336914 150.541592,38.3148672 149.143311,36.8771973 C147.745029,35.4395273 147.045898,33.6375434 147.045898,31.4711914 Z M207.688965,112 L193.332031,112 L193.332031,21.25 L207.688965,21.25 L207.688965,112 Z M253.088867,112 L238.731934,112 L238.731934,21.25 L253.088867,21.25 L253.088867,112 Z M298.48877,112 L284.131836,112 L284.131836,48.0732422 L298.48877,48.0732422 L298.48877,112 Z M283.245605,31.4711914 C283.245605,29.2654512 283.944736,27.4339266 285.343018,25.9765625 C286.741299,24.5191984 288.740221,23.7905273 291.339844,23.7905273 C293.939466,23.7905273 295.948235,24.5191984 297.366211,25.9765625 C298.784187,27.4339266 299.493164,29.2654512 299.493164,31.4711914 C299.493164,33.6375434 298.784187,35.4395273 297.366211,36.8771973 C295.948235,38.3148672 293.939466,39.0336914 291.339844,39.0336914 C288.740221,39.0336914 286.741299,38.3148672 285.343018,36.8771973 C283.944736,35.4395273 283.245605,33.6375434 283.245605,31.4711914 Z M366.8125,112 C366.182289,110.778965 365.630862,108.78989 365.158203,106.032715 C360.58917,110.798689 354.996127,113.181641 348.378906,113.181641 C341.958627,113.181641 336.720072,111.350116 332.663086,107.687012 C328.6061,104.023907 326.577637,99.4943304 326.577637,94.0981445 C326.577637,87.2839829 329.108292,82.0552754 334.169678,78.4118652 C339.231064,74.7684551 346.46854,72.9467773 355.882324,72.9467773 L364.685547,72.9467773 L364.685547,68.7519531 C364.685547,65.4433428 363.759938,62.7945249 361.908691,60.8054199 C360.057445,58.8163149 357.24123,57.8217773 353.459961,57.8217773 C350.190739,57.8217773 347.51238,58.6390706 345.424805,60.2736816 C343.337229,61.9082927 342.293457,63.98599 342.293457,66.5068359 L327.936523,66.5068359 C327.936523,63.0012846 329.098458,59.7222646 331.422363,56.6696777 C333.746268,53.6170909 336.907125,51.2242925 340.905029,49.4912109 C344.902933,47.7581294 349.363582,46.8916016 354.287109,46.8916016 C361.770871,46.8916016 367.738096,48.7723607 372.188965,52.5339355 C376.639833,56.2955103 378.924316,61.5832993 379.04248,68.3974609 L379.04248,97.2294922 C379.04248,102.980172 379.849927,107.568831 381.464844,110.995605 L381.464844,112 L366.8125,112 Z M351.037598,101.660645 C353.873549,101.660645 356.542061,100.971361 359.043213,99.5927734 C361.544365,98.2141858 363.425124,96.3629673 364.685547,94.0390625 L364.685547,81.9863281 L356.945801,81.9863281 C351.628391,81.9863281 347.630547,82.9119374 344.952148,84.7631836 C342.27375,86.6144298 340.93457,89.233707 340.93457,92.6210938 C340.93457,95.378269 341.850333,97.5741292 343.681885,99.2087402 C345.513437,100.843351 347.965317,101.660645 351.037598,101.660645 Z M421.901855,48.0732422 L422.31543,55.4584961 C427.042016,49.7472045 433.245567,46.8916016 440.92627,46.8916016 C454.239487,46.8916016 461.014159,54.5131074 461.250488,69.7563477 L461.250488,112 L446.893555,112 L446.893555,70.5834961 C446.893555,66.5265097 446.01718,63.5232031 444.264404,61.5734863 C442.511629,59.6237695 439.646179,58.6489258 435.667969,58.6489258 C429.877901,58.6489258 425.564956,61.268203 422.729004,66.5068359 L422.729004,112 L408.37207,112 L408.37207,48.0732422 L421.901855,48.0732422 Z M508.36377,32.534668 L508.36377,48.0732422 L519.648438,48.0732422 L519.648438,58.7080078 L508.36377,58.7080078 L508.36377,94.3935547 C508.36377,96.8356242 508.846268,98.5982205 509.811279,99.6813965 C510.776291,100.764572 512.499499,101.306152 514.980957,101.306152 C516.635262,101.306152 518.309236,101.109214 520.00293,100.715332 L520.00293,111.822754 C516.733708,112.728683 513.582697,113.181641 510.549805,113.181641 C499.521104,113.181641 494.006836,107.096252 494.006836,94.925293 L494.006836,58.7080078 L483.490234,58.7080078 L483.490234,48.0732422 L494.006836,48.0732422 L494.006836,32.534668 L508.36377,32.534668 Z M625.573242,94.6298828 C625.573242,92.0696487 624.519623,90.1199611 622.412354,88.7807617 C620.455603,87.5372194 617.301727,86.4295416 612.950642,85.4576998 L611.925293,85.2358398 C607.041154,84.2117462 602.964535,82.9119545 599.695312,81.3364258 C592.526657,77.8702626 588.942383,72.8483402 588.942383,66.2705078 C588.942383,60.7561573 591.266253,56.147805 595.914062,52.4453125 C600.561872,48.74282 606.470016,46.8916016 613.638672,46.8916016 C621.279986,46.8916016 627.453997,48.7822077 632.160889,52.5634766 C636.867781,56.3447455 639.221191,61.248505 639.221191,67.2749023 L624.864258,67.2749023 C624.864258,64.5177271 623.84018,62.2233978 621.791992,60.3918457 C619.743805,58.5602936 617.026059,57.6445312 613.638672,57.6445312 C610.487614,57.6445312 607.917572,58.3732023 605.928467,59.8305664 C603.939362,61.2879305 602.944824,63.237618 602.944824,65.6796875 C602.944824,67.8854277 603.870433,69.5987895 605.72168,70.8198242 C607.516828,72.0038579 611.089709,73.1971336 616.440427,74.3996848 L616.947266,74.5124512 C622.579781,75.75318 627.001042,77.230216 630.211182,78.9436035 C633.421321,80.656991 635.804273,82.7149945 637.360107,85.1176758 C638.915942,87.5203571 639.693848,90.4350415 639.693848,93.8618164 C639.693848,99.6124962 637.310896,104.270083 632.544922,107.834717 C627.778948,111.399351 621.536009,113.181641 613.815918,113.181641 C608.577285,113.181641 603.909851,112.236338 599.813477,110.345703 C595.717102,108.455069 592.526704,105.855485 590.242188,102.546875 C587.957671,99.2382647 586.81543,95.6736845 586.81543,91.8530273 L600.758789,91.8530273 C600.95573,95.2404141 602.235828,97.8498444 604.599121,99.6813965 C606.962414,101.512949 610.093731,102.428711 613.993164,102.428711 C617.774433,102.428711 620.64973,101.709887 622.619141,100.272217 C624.588552,98.8345468 625.573242,96.9537877 625.573242,94.6298828 Z M664.001465,79.4458008 C664.001465,73.1830742 665.242175,67.5407966 667.723633,62.5187988 C670.205091,57.4968011 673.690896,53.6368136 678.181152,50.9387207 C682.671409,48.2406278 687.831188,46.8916016 693.660645,46.8916016 C702.286664,46.8916016 709.287815,49.6684293 714.664307,55.222168 C720.040798,60.7759067 722.945636,68.1413929 723.378906,77.3188477 L723.437988,80.6865234 C723.437988,86.9886383 722.226819,92.6210689 719.804443,97.5839844 C717.382068,102.5469 713.915957,106.387193 709.406006,109.10498 C704.896055,111.822767 699.687041,113.181641 693.778809,113.181641 C684.758907,113.181641 677.541124,110.178334 672.125244,104.171631 C666.709364,98.1649276 664.001465,90.1593925 664.001465,80.1547852 L664.001465,79.4458008 Z M678.358398,80.6865234 C678.358398,87.2643558 679.717272,92.414288 682.435059,96.1364746 C685.152846,99.8586612 688.934058,101.719727 693.778809,101.719727 C698.623559,101.719727 702.394925,99.8291205 705.093018,96.0478516 C707.79111,92.2665827 709.140137,86.7326211 709.140137,79.4458008 C709.140137,72.9861331 707.751723,67.8657416 704.974854,64.0844727 C702.197984,60.3032037 698.426619,58.4125977 693.660645,58.4125977 C688.973447,58.4125977 685.251316,60.273663 682.494141,63.9958496 C679.736965,67.7180362 678.358398,73.2815385 678.358398,80.6865234 Z M765.352051,112 L750.995117,112 L750.995117,21.25 L765.352051,21.25 L765.352051,112 Z M834.20752,105.737305 C829.99298,110.70022 824.006061,113.181641 816.246582,113.181641 C809.314256,113.181641 804.065854,111.153178 800.501221,107.096191 C796.936587,103.039205 795.154297,97.1704486 795.154297,89.4897461 L795.154297,48.0732422 L809.51123,48.0732422 L809.51123,89.3125 C809.51123,97.4264729 812.878873,101.483398 819.614258,101.483398 C826.585972,101.483398 831.292794,98.9822841 833.734863,93.9799805 L833.734863,48.0732422 L848.091797,48.0732422 L848.091797,112 L834.562012,112 L834.20752,105.737305 Z M895.205078,32.534668 L895.205078,48.0732422 L906.489746,48.0732422 L906.489746,58.7080078 L895.205078,58.7080078 L895.205078,94.3935547 C895.205078,96.8356242 895.687577,98.5982205 896.652588,99.6813965 C897.617599,100.764572 899.340808,101.306152 901.822266,101.306152 C903.476571,101.306152 905.150545,101.109214 906.844238,100.715332 L906.844238,111.822754 C903.575016,112.728683 900.424006,113.181641 897.391113,113.181641 C886.362412,113.181641 880.848145,107.096252 880.848145,94.925293 L880.848145,58.7080078 L870.331543,58.7080078 L870.331543,48.0732422 L880.848145,48.0732422 L880.848145,32.534668 L895.205078,32.534668 Z M947.222168,112 L932.865234,112 L932.865234,48.0732422 L947.222168,48.0732422 L947.222168,112 Z M931.979004,31.4711914 C931.979004,29.2654512 932.678134,27.4339266 934.076416,25.9765625 C935.474698,24.5191984 937.47362,23.7905273 940.073242,23.7905273 C942.672865,23.7905273 944.681634,24.5191984 946.099609,25.9765625 C947.517585,27.4339266 948.226562,29.2654512 948.226562,31.4711914 C948.226562,33.6375434 947.517585,35.4395273 946.099609,36.8771973 C944.681634,38.3148672 942.672865,39.0336914 940.073242,39.0336914 C937.47362,39.0336914 935.474698,38.3148672 934.076416,36.8771973 C932.678134,35.4395273 931.979004,33.6375434 931.979004,31.4711914 Z M974.661133,79.4458008 C974.661133,73.1830742 975.901843,67.5407966 978.383301,62.5187988 C980.864759,57.4968011 984.350563,53.6368136 988.84082,50.9387207 C993.331077,48.2406278 998.490856,46.8916016 1004.32031,46.8916016 C1012.94633,46.8916016 1019.94748,49.6684293 1025.32397,55.222168 C1030.70047,60.7759067 1033.6053,68.1413929 1034.03857,77.3188477 L1034.09766,80.6865234 C1034.09766,86.9886383 1032.88649,92.6210689 1030.46411,97.5839844 C1028.04174,102.5469 1024.57562,106.387193 1020.06567,109.10498 C1015.55572,111.822767 1010.34671,113.181641 1004.43848,113.181641 C995.418575,113.181641 988.200792,110.178334 982.784912,104.171631 C977.369032,98.1649276 974.661133,90.1593925 974.661133,80.1547852 L974.661133,79.4458008 Z M989.018066,80.6865234 C989.018066,87.2643558 990.37694,92.414288 993.094727,96.1364746 C995.812514,99.8586612 999.593726,101.719727 1004.43848,101.719727 C1009.28323,101.719727 1013.05459,99.8291205 1015.75269,96.0478516 C1018.45078,92.2665827 1019.7998,86.7326211 1019.7998,79.4458008 C1019.7998,72.9861331 1018.41139,67.8657416 1015.63452,64.0844727 C1012.85765,60.3032037 1009.08629,58.4125977 1004.32031,58.4125977 C999.633115,58.4125977 995.910984,60.273663 993.153809,63.9958496 C990.396633,67.7180362 989.018066,73.2815385 989.018066,80.6865234 Z M1074.06201,48.0732422 L1074.47559,55.4584961 C1079.20217,49.7472045 1085.40572,46.8916016 1093.08643,46.8916016 C1106.39964,46.8916016 1113.17432,54.5131074 1113.41064,69.7563477 L1113.41064,112 L1099.05371,112 L1099.05371,70.5834961 C1099.05371,66.5265097 1098.17734,63.5232031 1096.42456,61.5734863 C1094.67178,59.6237695 1091.80633,58.6489258 1087.82812,58.6489258 C1082.03806,58.6489258 1077.72511,61.268203 1074.88916,66.5068359 L1074.88916,112 L1060.53223,112 L1060.53223,48.0732422 L1074.06201,48.0732422 Z M1178.3667,94.6298828 C1178.3667,92.0696487 1177.31308,90.1199611 1175.20581,88.7807617 C1173.24906,87.5372194 1170.09518,86.4295416 1165.7441,85.4576998 L1164.71875,85.2358398 C1159.83461,84.2117462 1155.75799,82.9119545 1152.48877,81.3364258 C1145.32011,77.8702626 1141.73584,72.8483402 1141.73584,66.2705078 C1141.73584,60.7561573 1144.05971,56.147805 1148.70752,52.4453125 C1153.35533,48.74282 1159.26347,46.8916016 1166.43213,46.8916016 C1174.07344,46.8916016 1180.24745,48.7822077 1184.95435,52.5634766 C1189.66124,56.3447455 1192.01465,61.248505 1192.01465,67.2749023 L1177.65771,67.2749023 C1177.65771,64.5177271 1176.63364,62.2233978 1174.58545,60.3918457 C1172.53726,58.5602936 1169.81952,57.6445312 1166.43213,57.6445312 C1163.28107,57.6445312 1160.71103,58.3732023 1158.72192,59.8305664 C1156.73282,61.2879305 1155.73828,63.237618 1155.73828,65.6796875 C1155.73828,67.8854277 1156.66389,69.5987895 1158.51514,70.8198242 C1160.31028,72.0038579 1163.88317,73.1971336 1169.23388,74.3996848 L1169.74072,74.5124512 C1175.37324,75.75318 1179.7945,77.230216 1183.00464,78.9436035 C1186.21478,80.656991 1188.59773,82.7149945 1190.15356,85.1176758 C1191.7094,87.5203571 1192.4873,90.4350415 1192.4873,93.8618164 C1192.4873,99.6124962 1190.10435,104.270083 1185.33838,107.834717 C1180.5724,111.399351 1174.32947,113.181641 1166.60938,113.181641 C1161.37074,113.181641 1156.70331,112.236338 1152.60693,110.345703 C1148.51056,108.455069 1145.32016,105.855485 1143.03564,102.546875 C1140.75113,99.2382647 1139.60889,95.6736845 1139.60889,91.8530273 L1153.55225,91.8530273 C1153.74919,95.2404141 1155.02929,97.8498444 1157.39258,99.6813965 C1159.75587,101.512949 1162.88719,102.428711 1166.78662,102.428711 C1170.56789,102.428711 1173.44319,101.709887 1175.4126,100.272217 C1177.38201,98.8345468 1178.3667,96.9537877 1178.3667,94.6298828 Z" id="brilliantsolutions"></path>
                </g>
            </g>
        </g>
    </g>
</svg>